<svg width="50" height="30" viewBox="0 0 155 126" fill="none" xmlns="http://www.w3.org/2000/svg">
<path d="M7.38 120.18C7.04667 120.18 6.75333 120.06 6.5 119.82C6.26 119.58 6.14 119.293 6.14 118.96C6.14 118.613 6.26 118.32 6.5 118.08C6.75333 117.84 7.04667 117.72 7.38 117.72C7.99333 117.72 8.39333 117.633 8.58 117.46C8.76667 117.273 8.86 116.893 8.86 116.32V110.78H3.58C3.24667 110.78 2.96 110.667 2.72 110.44C2.49333 110.2 2.38 109.913 2.38 109.58C2.38 109.247 2.49333 108.967 2.72 108.74C2.96 108.5 3.24667 108.38 3.58 108.38H8.86V106.22C8.86 105.873 8.98 105.587 9.22 105.36C9.46 105.12 9.74667 105 10.08 105C10.4267 105 10.7133 105.12 10.94 105.36C11.18 105.587 11.3 105.873 11.3 106.22V108.38H16.24C16.5733 108.38 16.8533 108.5 17.08 108.74C17.32 108.967 17.44 109.247 17.44 109.58C17.44 109.913 17.32 110.2 17.08 110.44C16.8533 110.667 16.5733 110.78 16.24 110.78H11.3V116.46C11.3 117.82 11 118.78 10.4 119.34C9.8 119.9 8.79333 120.18 7.38 120.18ZM3.34 117.66C3.04667 117.833 2.73333 117.88 2.4 117.8C2.08 117.707 1.83333 117.513 1.66 117.22C1.48667 116.913 1.44667 116.6 1.54 116.28C1.63333 115.96 1.82 115.713 2.1 115.54C2.64667 115.167 3.21333 114.74 3.8 114.26C4.38667 113.78 4.9 113.293 5.34 112.8C5.56667 112.547 5.84 112.393 6.16 112.34C6.48 112.273 6.77333 112.333 7.04 112.52C7.30667 112.72 7.46667 112.987 7.52 113.32C7.58667 113.653 7.51333 113.953 7.3 114.22C6.96667 114.647 6.57333 115.08 6.12 115.52C5.68 115.947 5.21333 116.347 4.72 116.72C4.24 117.08 3.78 117.393 3.34 117.66ZM18.14 117.22C17.8867 117.447 17.5867 117.547 17.24 117.52C16.9067 117.493 16.62 117.36 16.38 117.12C16.1133 116.853 15.7867 116.553 15.4 116.22C15.0267 115.873 14.64 115.54 14.24 115.22C13.8533 114.887 13.5 114.613 13.18 114.4C12.9133 114.213 12.7467 113.96 12.68 113.64C12.6267 113.307 12.6867 113 12.86 112.72C13.0467 112.44 13.3067 112.273 13.64 112.22C13.9733 112.153 14.28 112.213 14.56 112.4C14.9067 112.627 15.3067 112.92 15.76 113.28C16.2133 113.64 16.66 114.013 17.1 114.4C17.54 114.773 17.92 115.127 18.24 115.46C18.48 115.7 18.5867 116 18.56 116.36C18.5467 116.707 18.4067 116.993 18.14 117.22ZM16.86 107.76C16.3 107.76 15.82 107.567 15.42 107.18C15.0333 106.78 14.84 106.3 14.84 105.74C14.84 105.193 15.0333 104.727 15.42 104.34C15.82 103.94 16.3 103.74 16.86 103.74C17.4067 103.74 17.8733 103.94 18.26 104.34C18.66 104.727 18.86 105.193 18.86 105.74C18.86 106.3 18.66 106.78 18.26 107.18C17.8733 107.567 17.4067 107.76 16.86 107.76ZM16.86 106.62C17.0867 106.62 17.2867 106.533 17.46 106.36C17.6333 106.187 17.72 105.98 17.72 105.74C17.72 105.5 17.6333 105.3 17.46 105.14C17.2867 104.967 17.0867 104.88 16.86 104.88C16.62 104.88 16.4133 104.967 16.24 105.14C16.0667 105.3 15.98 105.5 15.98 105.74C15.98 105.98 16.0667 106.187 16.24 106.36C16.4133 106.533 16.62 106.62 16.86 106.62ZM28.74 120.84C28.4733 120.96 28.1933 120.967 27.9 120.86C27.62 120.753 27.42 120.567 27.3 120.3C27.18 120.02 27.1733 119.74 27.28 119.46C27.3867 119.18 27.5733 118.98 27.84 118.86C29.2 118.247 30.3133 117.553 31.18 116.78C32.06 115.993 32.7467 115.093 33.24 114.08C33.7333 113.053 34.0733 111.88 34.26 110.56C34.3 110.253 34.44 110.013 34.68 109.84C34.9333 109.667 35.2067 109.6 35.5 109.64C35.7933 109.68 36.0267 109.82 36.2 110.06C36.3867 110.3 36.4533 110.573 36.4 110.88C36.0533 113.173 35.2533 115.153 34 116.82C32.76 118.473 31.0067 119.813 28.74 120.84ZM31.38 114.32C31.0867 114.413 30.8133 114.4 30.56 114.28C30.3067 114.147 30.1267 113.94 30.02 113.66C29.8733 113.273 29.6867 112.833 29.46 112.34C29.2467 111.847 29.0667 111.453 28.92 111.16C28.7867 110.893 28.7533 110.62 28.82 110.34C28.8867 110.047 29.0467 109.827 29.3 109.68C29.5667 109.52 29.8467 109.48 30.14 109.56C30.4333 109.627 30.6467 109.793 30.78 110.06C30.98 110.433 31.2 110.893 31.44 111.44C31.6933 111.973 31.9 112.48 32.06 112.96C32.1667 113.24 32.1467 113.513 32 113.78C31.8667 114.047 31.66 114.227 31.38 114.32ZM28.1 115.08C27.8333 115.2 27.56 115.207 27.28 115.1C27.0133 114.98 26.8133 114.787 26.68 114.52C26.4667 114.08 26.24 113.653 26 113.24C25.7733 112.813 25.5667 112.453 25.38 112.16C25.2067 111.907 25.14 111.633 25.18 111.34C25.2333 111.047 25.38 110.813 25.62 110.64C25.86 110.467 26.1267 110.407 26.42 110.46C26.7267 110.5 26.9667 110.64 27.14 110.88C27.3933 111.24 27.6667 111.693 27.96 112.24C28.2533 112.773 28.4867 113.247 28.66 113.66C28.7933 113.927 28.8 114.2 28.68 114.48C28.5733 114.76 28.38 114.96 28.1 115.08ZM48.76 120.36C48.4933 120.56 48.1867 120.633 47.84 120.58C47.5067 120.54 47.24 120.387 47.04 120.12C46.8267 119.84 46.7467 119.533 46.8 119.2C46.8533 118.867 47.0133 118.593 47.28 118.38C48.16 117.727 48.9 116.933 49.5 116C50.1 115.067 50.54 114.047 50.82 112.94H43.98C43.6467 112.94 43.36 112.827 43.12 112.6C42.8933 112.36 42.78 112.073 42.78 111.74C42.78 111.407 42.8933 111.127 43.12 110.9C43.36 110.66 43.6467 110.54 43.98 110.54H51.16C51.1733 109.847 51.1333 109.14 51.04 108.42C50.24 108.553 49.4467 108.667 48.66 108.76C47.8733 108.84 47.14 108.9 46.46 108.94C46.1267 108.967 45.8333 108.86 45.58 108.62C45.34 108.38 45.2133 108.093 45.2 107.76C45.1867 107.413 45.3 107.127 45.54 106.9C45.78 106.66 46.0667 106.533 46.4 106.52C47.0667 106.493 47.7867 106.433 48.56 106.34C49.3333 106.247 50.1133 106.133 50.9 106C51.6867 105.867 52.4333 105.72 53.14 105.56C53.86 105.387 54.4933 105.213 55.04 105.04C55.3733 104.933 55.6933 104.947 56 105.08C56.3067 105.213 56.52 105.44 56.64 105.76C56.76 106.08 56.7467 106.393 56.6 106.7C56.4667 107.007 56.2333 107.213 55.9 107.32C55.5667 107.44 55.1867 107.553 54.76 107.66C54.3333 107.767 53.88 107.873 53.4 107.98C53.4667 108.393 53.5067 108.82 53.52 109.26C53.5467 109.687 53.5533 110.113 53.54 110.54H59.32C59.6533 110.54 59.9333 110.66 60.16 110.9C60.4 111.127 60.52 111.407 60.52 111.74C60.52 112.073 60.4 112.36 60.16 112.6C59.9333 112.827 59.6533 112.94 59.32 112.94H53.24C52.9333 114.46 52.3933 115.873 51.62 117.18C50.86 118.473 49.9067 119.533 48.76 120.36ZM66.28 113.72C65.9467 113.72 65.6533 113.6 65.4 113.36C65.16 113.107 65.04 112.813 65.04 112.48C65.04 112.133 65.16 111.84 65.4 111.6C65.6533 111.36 65.9467 111.24 66.28 111.24H78.74C79.0867 111.24 79.38 111.36 79.62 111.6C79.86 111.84 79.98 112.133 79.98 112.48C79.98 112.813 79.86 113.107 79.62 113.36C79.38 113.6 79.0867 113.72 78.74 113.72H66.28ZM86.08 116.72C85.8 116.92 85.4867 116.993 85.14 116.94C84.8067 116.887 84.54 116.72 84.34 116.44C84.14 116.16 84.0667 115.853 84.12 115.52C84.1867 115.173 84.36 114.9 84.64 114.7C85.3067 114.233 85.9667 113.673 86.62 113.02C87.2733 112.353 87.8667 111.66 88.4 110.94C88.9333 110.22 89.36 109.553 89.68 108.94C89.84 108.633 90.08 108.42 90.4 108.3C90.72 108.18 91.0267 108.193 91.32 108.34C91.6267 108.487 91.8333 108.727 91.94 109.06C92.06 109.38 92.04 109.693 91.88 110C91.4933 110.747 90.9933 111.533 90.38 112.36C89.7667 113.187 89.0867 113.98 88.34 114.74C87.6067 115.5 86.8533 116.16 86.08 116.72ZM101.5 116.62C101.207 116.793 100.893 116.84 100.56 116.76C100.227 116.667 99.9733 116.473 99.8 116.18C99.56 115.78 99.2533 115.32 98.88 114.8C98.5067 114.28 98.0933 113.747 97.64 113.2C97.2 112.653 96.7467 112.133 96.28 111.64C95.8133 111.133 95.38 110.7 94.98 110.34C94.7267 110.113 94.5933 109.827 94.58 109.48C94.5667 109.133 94.6733 108.833 94.9 108.58C95.14 108.34 95.4267 108.22 95.76 108.22C96.1067 108.22 96.4067 108.333 96.66 108.56C97.1 108.973 97.5733 109.447 98.08 109.98C98.5867 110.513 99.08 111.073 99.56 111.66C100.053 112.233 100.507 112.807 100.92 113.38C101.333 113.94 101.673 114.453 101.94 114.92C102.113 115.213 102.16 115.527 102.08 115.86C102 116.193 101.807 116.447 101.5 116.62ZM100.3 109.16C99.74 109.16 99.26 108.967 98.86 108.58C98.4733 108.18 98.28 107.7 98.28 107.14C98.28 106.58 98.4733 106.107 98.86 105.72C99.26 105.32 99.74 105.12 100.3 105.12C100.86 105.12 101.333 105.32 101.72 105.72C102.12 106.107 102.32 106.58 102.32 107.14C102.32 107.7 102.12 108.18 101.72 108.58C101.333 108.967 100.86 109.16 100.3 109.16ZM100.3 108C100.54 108 100.74 107.92 100.9 107.76C101.073 107.587 101.16 107.38 101.16 107.14C101.16 106.9 101.073 106.7 100.9 106.54C100.74 106.367 100.54 106.28 100.3 106.28C100.06 106.28 99.8533 106.367 99.68 106.54C99.52 106.7 99.44 106.9 99.44 107.14C99.44 107.38 99.52 107.587 99.68 107.76C99.8533 107.92 100.06 108 100.3 108ZM109.34 119.22C109.02 119.34 108.7 119.327 108.38 119.18C108.073 119.033 107.86 118.8 107.74 118.48C107.62 118.16 107.633 117.847 107.78 117.54C107.927 117.22 108.16 117 108.48 116.88C109.547 116.507 110.62 116.047 111.7 115.5C112.793 114.953 113.833 114.36 114.82 113.72C115.82 113.067 116.727 112.4 117.54 111.72C118.367 111.027 119.04 110.36 119.56 109.72C119.787 109.453 120.067 109.3 120.4 109.26C120.747 109.22 121.047 109.313 121.3 109.54C121.567 109.753 121.72 110.033 121.76 110.38C121.8 110.713 121.707 111.013 121.48 111.28C120.933 111.947 120.207 112.66 119.3 113.42C118.393 114.167 117.38 114.907 116.26 115.64C115.14 116.373 113.987 117.053 112.8 117.68C111.613 118.307 110.46 118.82 109.34 119.22ZM111.06 111.34C110.553 110.913 109.987 110.473 109.36 110.02C108.733 109.553 108.167 109.173 107.66 108.88C107.367 108.693 107.18 108.44 107.1 108.12C107.02 107.787 107.067 107.473 107.24 107.18C107.427 106.887 107.68 106.7 108 106.62C108.333 106.527 108.647 106.573 108.94 106.76C109.3 106.987 109.707 107.267 110.16 107.6C110.627 107.92 111.073 108.24 111.5 108.56C111.94 108.88 112.3 109.153 112.58 109.38C112.847 109.593 113 109.873 113.04 110.22C113.093 110.553 113.013 110.853 112.8 111.12C112.587 111.387 112.307 111.547 111.96 111.6C111.627 111.64 111.327 111.553 111.06 111.34ZM125.94 121.36C125.647 121.227 125.453 121.013 125.36 120.72C125.28 120.44 125.307 120.153 125.44 119.86C125.867 118.94 126.207 118.013 126.46 117.08C126.727 116.147 126.913 115.127 127.02 114.02C127.14 112.913 127.2 111.66 127.2 110.26V107C127.2 106.16 127.313 105.507 127.54 105.04C127.767 104.56 128.16 104.227 128.72 104.04C129.28 103.84 130.053 103.74 131.04 103.74H139.68C140.587 103.74 141.273 103.807 141.74 103.94C142.22 104.073 142.54 104.313 142.7 104.66C142.873 104.993 142.96 105.487 142.96 106.14C142.96 106.78 142.873 107.287 142.7 107.66C142.54 108.02 142.22 108.273 141.74 108.42C141.273 108.567 140.587 108.64 139.68 108.64H129.46V109.56H143.04C143.307 109.56 143.52 109.653 143.68 109.84C143.84 110.013 143.92 110.22 143.92 110.46C143.92 110.7 143.84 110.913 143.68 111.1C143.52 111.273 143.307 111.36 143.04 111.36H140.1C140.5 111.707 140.94 112.107 141.42 112.56C141.9 113 142.287 113.38 142.58 113.7C142.793 113.913 142.893 114.173 142.88 114.48C142.88 114.787 142.76 115.047 142.52 115.26C142.307 115.46 142.047 115.553 141.74 115.54C141.433 115.527 141.18 115.407 140.98 115.18C140.9 115.087 140.813 114.987 140.72 114.88C140.627 114.773 140.527 114.667 140.42 114.56C139.993 114.587 139.507 114.62 138.96 114.66C138.427 114.7 137.867 114.74 137.28 114.78V116.16H140.72C140.987 116.16 141.207 116.253 141.38 116.44C141.553 116.613 141.64 116.833 141.64 117.1C141.64 117.353 141.553 117.573 141.38 117.76C141.207 117.933 140.987 118.02 140.72 118.02H137.28V119.36H142.76C143.027 119.36 143.247 119.453 143.42 119.64C143.593 119.813 143.68 120.027 143.68 120.28C143.68 120.533 143.593 120.747 143.42 120.92C143.247 121.107 143.027 121.2 142.76 121.2H129.92C129.667 121.2 129.447 121.107 129.26 120.92C129.073 120.747 128.98 120.533 128.98 120.28C128.98 120.027 129.073 119.813 129.26 119.64C129.447 119.453 129.667 119.36 129.92 119.36H134.94V118.02H131.38C131.127 118.02 130.907 117.933 130.72 117.76C130.547 117.573 130.46 117.353 130.46 117.1C130.46 116.833 130.547 116.613 130.72 116.44C130.907 116.253 131.127 116.16 131.38 116.16H134.94V114.92C134.193 114.96 133.473 114.993 132.78 115.02C132.1 115.047 131.507 115.073 131 115.1C130.667 115.113 130.407 115.04 130.22 114.88C130.033 114.707 129.933 114.473 129.92 114.18C129.907 113.887 129.987 113.653 130.16 113.48C130.333 113.307 130.58 113.22 130.9 113.22C131.127 113.207 131.367 113.2 131.62 113.2C131.873 113.2 132.14 113.193 132.42 113.18C132.593 112.9 132.773 112.593 132.96 112.26C133.147 111.927 133.313 111.627 133.46 111.36H129.44C129.413 112.693 129.327 113.9 129.18 114.98C129.047 116.047 128.853 117.047 128.6 117.98C128.347 118.913 128.02 119.833 127.62 120.74C127.487 121.047 127.253 121.26 126.92 121.38C126.587 121.5 126.26 121.493 125.94 121.36ZM129.46 106.8H139.5C139.967 106.8 140.26 106.76 140.38 106.68C140.5 106.6 140.56 106.433 140.56 106.18C140.56 105.913 140.5 105.74 140.38 105.66C140.26 105.58 139.973 105.54 139.52 105.54H131.08C130.627 105.54 130.28 105.573 130.04 105.64C129.813 105.693 129.66 105.813 129.58 106C129.5 106.173 129.46 106.44 129.46 106.8ZM134.88 113.08C135.547 113.053 136.22 113.027 136.9 113C137.58 112.973 138.213 112.947 138.8 112.92C138.707 112.827 138.613 112.74 138.52 112.66C138.44 112.58 138.367 112.513 138.3 112.46C138.14 112.313 138.047 112.14 138.02 111.94C137.993 111.727 138.027 111.533 138.12 111.36H135.92C135.76 111.627 135.593 111.907 135.42 112.2C135.247 112.493 135.067 112.787 134.88 113.08Z" fill="#616153"/>
<mask id="path-2-inside-1_1146_6912" fill="white">
<path fill-rule="evenodd" clip-rule="evenodd" d="M19.9986 1.18737L18.9019 2.75322L18.5232 4.05341L18.6146 6.19317L18.7669 9.75948L18.9039 12.9692L19.0562 16.5355L21.2335 30.4064C17.2555 36.9146 15 44.3501 15 52.2465C15 77.8589 38.7289 98.6219 68 98.6219C97.2711 98.6219 121 77.8589 121 52.2465C121 44.2589 118.692 36.7429 114.628 30.1813L116.77 16.5355L116.922 12.9692L117.059 9.75948L117.212 6.19317L117.303 4.05341L116.924 2.75322L115.828 1.18737L113.785 0L112.04 0.193939L110.505 0.546952L107.421 1.60964L89.0567 9.67544C82.6025 7.22785 75.4823 5.87116 68 5.87116C60.4817 5.87116 53.329 7.24095 46.8501 9.71086L28.4055 1.60964L25.3208 0.546952L23.786 0.193939L22.0409 0L19.9986 1.18737Z"/>
</mask>
<path d="M18.9019 2.75322L13.9874 -0.688801L13.4185 0.123398L13.1413 1.07543L18.9019 2.75322ZM19.9986 1.18737L16.9829 -3.99968L15.8415 -3.33608L15.0841 -2.25464L19.9986 1.18737ZM18.5232 4.05341L12.7626 2.37562L12.4866 3.32325L12.5287 4.30935L18.5232 4.05341ZM18.6146 6.19317L12.6201 6.44911L12.6201 6.44912L18.6146 6.19317ZM18.7669 9.75948L24.7614 9.50353V9.50352L18.7669 9.75948ZM18.9039 12.9692L12.9094 13.2251V13.2251L18.9039 12.9692ZM19.0562 16.5355L13.0616 16.7914L13.0761 17.1306L13.1288 17.4659L19.0562 16.5355ZM21.2335 30.4064L26.3529 33.5356L27.5028 31.6542L27.1609 29.476L21.2335 30.4064ZM114.628 30.1813L108.701 29.2509L108.356 31.449L109.527 33.3406L114.628 30.1813ZM116.77 16.5355L122.697 17.4659L122.75 17.1306L122.765 16.7914L116.77 16.5355ZM116.922 12.9692L110.928 12.7132V12.7132L116.922 12.9692ZM117.059 9.75948L111.065 9.50352V9.50352L117.059 9.75948ZM117.212 6.19317L123.206 6.44912V6.44909L117.212 6.19317ZM117.303 4.05341L123.297 4.30933L123.34 3.32324L123.064 2.37563L117.303 4.05341ZM116.924 2.75322L122.685 1.07544L122.408 0.123403L121.839 -0.688798L116.924 2.75322ZM115.828 1.18737L120.742 -2.25464L119.985 -3.33608L118.843 -3.99968L115.828 1.18737ZM113.785 0L116.801 -5.18705L115.09 -6.18192L113.123 -5.96329L113.785 0ZM112.04 0.193939L111.377 -5.76935L111.033 -5.73107L110.695 -5.65338L112.04 0.193939ZM110.505 0.546952L109.16 -5.30037L108.851 -5.22923L108.551 -5.12587L110.505 0.546952ZM107.421 1.60964L105.466 -4.06319L105.233 -3.98293L105.008 -3.88383L107.421 1.60964ZM89.0567 9.67544L86.9293 15.2856L89.2233 16.1555L91.4696 15.1689L89.0567 9.67544ZM46.8501 9.71086L44.4373 15.2043L46.6892 16.1934L48.9874 15.3173L46.8501 9.71086ZM28.4055 1.60964L30.8184 -3.88383L30.5928 -3.98293L30.3598 -4.06319L28.4055 1.60964ZM25.3208 0.546952L27.275 -5.12587L26.975 -5.22923L26.6657 -5.30037L25.3208 0.546952ZM23.786 0.193939L25.1309 -5.65338L24.7932 -5.73107L24.4487 -5.76935L23.786 0.193939ZM22.0409 0L22.7036 -5.96329L20.7364 -6.18192L19.0252 -5.18705L22.0409 0ZM23.8164 6.19523L24.9131 4.62939L15.0841 -2.25464L13.9874 -0.688801L23.8164 6.19523ZM24.2839 5.73119L24.6626 4.431L13.1413 1.07543L12.7626 2.37562L24.2839 5.73119ZM24.6091 5.93722L24.5178 3.79746L12.5287 4.30935L12.6201 6.44911L24.6091 5.93722ZM24.7614 9.50352L24.6091 5.93721L12.6201 6.44912L12.7723 10.0154L24.7614 9.50352ZM24.8984 12.7132L24.7614 9.50353L12.7723 10.0154L12.9094 13.2251L24.8984 12.7132ZM25.0507 16.2795L24.8984 12.7132L12.9094 13.2251L13.0616 16.7914L25.0507 16.2795ZM27.1609 29.476L24.9836 15.6051L13.1288 17.4659L15.3061 31.3368L27.1609 29.476ZM21 52.2465C21 45.5191 22.916 39.1585 26.3529 33.5356L16.1141 27.2773C11.595 34.6707 9 43.1811 9 52.2465H21ZM68 92.6219C41.265 92.6219 21 73.8177 21 52.2465H9C9 81.9001 36.1928 104.622 68 104.622V92.6219ZM115 52.2465C115 73.8177 94.735 92.6219 68 92.6219V104.622C99.8072 104.622 127 81.9001 127 52.2465H115ZM109.527 33.3406C113.04 39.0117 115 45.4419 115 52.2465H127C127 43.0759 124.345 34.4742 119.729 27.022L109.527 33.3406ZM110.843 15.6051L108.701 29.2509L120.555 31.1117L122.697 17.4659L110.843 15.6051ZM110.928 12.7132L110.775 16.2795L122.765 16.7914L122.917 13.2251L110.928 12.7132ZM111.065 9.50352L110.928 12.7132L122.917 13.2251L123.054 10.0154L111.065 9.50352ZM111.217 5.93721L111.065 9.50352L123.054 10.0154L123.206 6.44912L111.217 5.93721ZM111.308 3.79748L111.217 5.93724L123.206 6.44909L123.297 4.30933L111.308 3.79748ZM111.164 4.43099L111.542 5.73118L123.064 2.37563L122.685 1.07544L111.164 4.43099ZM110.913 4.62939L112.01 6.19523L121.839 -0.688798L120.742 -2.25464L110.913 4.62939ZM110.77 5.18705L112.812 6.37443L118.843 -3.99968L116.801 -5.18705L110.77 5.18705ZM112.703 6.15723L114.448 5.96329L113.123 -5.96329L111.377 -5.76935L112.703 6.15723ZM111.85 6.39427L113.385 6.04126L110.695 -5.65338L109.16 -5.30037L111.85 6.39427ZM109.375 7.28246L112.46 6.21978L108.551 -5.12587L105.466 -4.06319L109.375 7.28246ZM91.4696 15.1689L109.833 7.1031L105.008 -3.88383L86.6439 4.18197L91.4696 15.1689ZM68 11.8712C74.756 11.8712 81.1553 13.096 86.9293 15.2856L91.1842 4.06528C84.0497 1.35972 76.2086 -0.128843 68 -0.128843V11.8712ZM48.9874 15.3173C54.7831 13.1078 61.2115 11.8712 68 11.8712V-0.128843C59.7519 -0.128843 51.8748 1.37409 44.7128 4.10445L48.9874 15.3173ZM25.9927 7.10311L44.4373 15.2043L49.263 4.2174L30.8184 -3.88383L25.9927 7.10311ZM23.3665 6.21978L26.4513 7.28246L30.3598 -4.06319L27.275 -5.12587L23.3665 6.21978ZM22.441 6.04126L23.9758 6.39427L26.6657 -5.30037L25.1309 -5.65338L22.441 6.04126ZM21.3782 5.96329L23.1233 6.15723L24.4487 -5.76935L22.7036 -5.96329L21.3782 5.96329ZM23.0143 6.37442L25.0566 5.18705L19.0252 -5.18705L16.9829 -3.99968L23.0143 6.37442Z" fill="#616153" mask="url(#path-2-inside-1_1146_6912)"/>
<path d="M73.318 62.029C73.3583 60.5415 72.1368 59.548 70.9372 59.5155C69.7377 59.483 68.4148 60.4555 68.3745 61.9429C68.3693 62.1349 68.4107 62.3761 68.4029 62.664C68.399 62.8079 68.3951 62.9519 68.3912 63.0958C68.3314 65.303 67.6424 69.4618 61.7885 69.3031C57.758 69.1938 55.3086 65.6701 55.4036 62.1674C55.4947 58.8086 56.448 57.2979 58.9057 55.2038C59.5451 54.6449 59.8512 53.981 59.8681 53.3572C59.9071 51.9177 58.6 50.5378 57.1126 50.4974C55.0014 50.4402 50.5218 54.4963 50.324 61.7896C50.1275 69.0349 54.7852 74.3471 61.5507 74.5306C68.0763 74.7075 70.6134 69.6865 70.9688 68.9758C72.1992 71.4101 74.7007 73.0145 77.9635 73.103C84.2972 73.2747 87.3088 68.4586 87.4454 63.4204C87.6003 57.7105 84.2055 53.633 82.2383 53.5797C80.8468 53.5419 79.6121 54.8049 79.5757 56.1484C79.56 56.7242 79.7364 57.3052 80.2512 57.7993C81.2794 58.8356 82.676 60.4581 82.6057 63.0491C82.5211 66.168 80.2606 68.0754 78.1974 68.0194C78.1494 68.0181 78.1014 68.0168 78.0534 68.0155C75.1745 67.9375 73.2955 66.398 73.2789 63.4684L73.318 62.029Z" fill="#616153"/>
<rect x="54" y="9" width="6" height="17" rx="3" fill="#616153"/>
<rect x="66" y="9" width="6" height="17" rx="3" fill="#616153"/>
<rect x="78" y="9" width="6" height="17" rx="3" fill="#616153"/>
<path d="M28.3044 14.4625C28.0994 12.8913 29.7157 11.717 31.1466 12.3975L39.467 16.3547C40.8374 17.0064 41.0112 18.8869 39.7836 19.7788L32.6555 24.9577C31.4279 25.8496 29.6932 25.1031 29.4968 23.5985L28.3044 14.4625Z" fill="#D9D9D9"/>
<path d="M108.582 13.8485C108.787 12.2773 107.171 11.103 105.74 11.7835L97.4193 15.7407C96.049 16.3924 95.8751 18.2729 97.1027 19.1648L104.231 24.3437C105.458 25.2356 107.193 24.4891 107.39 22.9845L108.582 13.8485Z" fill="#D9D9D9"/>
<ellipse rx="3.49449" ry="3.06664" transform="matrix(0.107655 0.994188 -0.990676 0.136242 127.931 78.5044)" fill="#616153"/>
<ellipse rx="3.50873" ry="3.05377" transform="matrix(-0.0464823 0.998919 -0.999734 -0.0230649 135.65 75.9788)" fill="#616153"/>
<ellipse rx="3.49449" ry="3.06664" transform="matrix(-0.84971 0.52725 0.502561 0.864542 146.02 86.455)" fill="#616153"/>
<ellipse rx="3.52114" ry="3.04245" transform="matrix(-0.62401 0.781416 0.772716 0.634753 142.921 79.1298)" fill="#616153"/>
<path d="M140.61 94.2889C140.417 94.8454 140.05 95.3457 139.512 95.5841C137.972 96.2659 136.386 95.3929 134.698 94.1133C133.132 92.9259 131.391 92.0009 129.496 91.4823C126.81 90.7474 124.924 90.0286 125.178 88.1695C125.213 87.9159 125.309 87.6733 125.434 87.45C127.386 83.9678 133.593 79.5635 137.607 81.5213C141.456 83.3985 141.936 90.4644 140.61 94.2889Z" fill="#616153"/>
<path d="M132.275 95.0517C127.963 91.8077 120.649 93.4001 123.513 87.1702C124.407 85.2262 123.956 82.8838 123.142 80.9049C121.743 77.5004 123.418 73.6035 126.471 73.022C128.932 72.5533 132.02 71.9304 134.408 71.1749C135.501 70.8293 136.645 70.8993 137.648 71.3846C139.681 72.3684 142.04 73.7434 144.257 74.1757C145.821 74.4807 147.198 75.3332 147.729 76.9209C148.505 79.2433 149.943 82.0224 150.734 84.3399C151.754 87.3302 149.713 91.4977 145.167 91.585C144.237 91.6028 143.264 91.7803 142.936 92.6518C141.74 95.8376 142.04 103.169 132.275 95.0517Z" stroke="#616153" stroke-width="0.6"/>
</svg>
