<svg width="169" height="118" viewBox="0 0 169 118" fill="none" xmlns="http://www.w3.org/2000/svg">
<mask id="path-1-inside-1_1226_3238" fill="white">
<path fill-rule="evenodd" clip-rule="evenodd" d="M137.188 1.60608L138.523 3.72409L138.984 5.48277L138.872 8.37707L138.687 13.201L138.52 17.5425L138.335 22.3664L135.768 40.5462C142.652 52.6766 146.683 66.3473 146.683 79.1755C146.683 113.82 117.288 114.749 81.6714 114.749C46.0552 114.749 20.6826 113.82 20.6826 79.1755C20.6826 67.214 23.7073 54.5199 29.1339 43.0251L27.3046 44.6138L24.6341 25.7014L24.4488 20.8775L24.2821 16.536L24.0968 11.712L23.9856 8.81774L24.4464 7.05907L25.7808 4.94106L28.2658 3.33498L30.3892 3.5973L32.2567 4.0748L36.0101 5.51222L52.6114 13.618C61.0848 7.46566 70.9106 3.74226 81.6714 3.74226C91.0572 3.74226 100.011 6.5749 108.109 11.3813L126.959 2.17725L130.713 0.739825L132.58 0.262328L134.703 0L137.188 1.60608Z"/>
</mask>
<path d="M138.523 3.72409L144.327 2.20345L144.092 1.3085L143.599 0.52575L138.523 3.72409ZM137.188 1.60608L142.265 -1.59226L141.558 -2.71364L140.445 -3.43306L137.188 1.60608ZM138.984 5.48277L144.979 5.71305L145.013 4.82338L144.788 3.96213L138.984 5.48277ZM138.872 8.37707L132.877 8.14679V8.14679L138.872 8.37707ZM138.687 13.201L132.692 12.9707V12.9707L138.687 13.201ZM138.52 17.5425L144.516 17.7728V17.7728L138.52 17.5425ZM138.335 22.3664L144.276 23.2053L144.319 22.9024L144.331 22.5967L138.335 22.3664ZM135.768 40.5462L129.827 39.7073L129.541 41.7306L130.55 43.5077L135.768 40.5462ZM29.1339 43.0251L34.5597 45.5866L25.1998 38.4949L29.1339 43.0251ZM27.3046 44.6138L21.3635 45.4527L22.9064 56.3799L31.2387 49.144L27.3046 44.6138ZM24.6341 25.7014L18.6385 25.9317L18.6503 26.2374L18.693 26.5403L24.6341 25.7014ZM24.4488 20.8775L18.4532 21.1078L24.4488 20.8775ZM24.2821 16.536L30.2776 16.3057L24.2821 16.536ZM24.0968 11.712L18.1012 11.9423V11.9423L24.0968 11.712ZM23.9856 8.81774L18.1815 7.29709L17.9559 8.15835L17.99 9.04802L23.9856 8.81774ZM24.4464 7.05907L19.3699 3.86073L18.8768 4.64348L18.6423 5.53842L24.4464 7.05907ZM25.7808 4.94106L22.524 -0.0980877L21.4108 0.621341L20.7043 1.74272L25.7808 4.94106ZM28.2658 3.33498L29.0015 -2.61975L26.839 -2.88691L25.009 -1.70417L28.2658 3.33498ZM30.3892 3.5973L31.8755 -2.21568L31.5047 -2.3105L31.1248 -2.35743L30.3892 3.5973ZM32.2567 4.0748L34.4024 -1.52838L34.0788 -1.65233L33.743 -1.73819L32.2567 4.0748ZM36.0101 5.51222L38.6427 0.120585L38.404 0.00403861L38.1559 -0.0909581L36.0101 5.51222ZM52.6114 13.618L49.9789 19.0097L53.219 20.5917L56.1367 18.4732L52.6114 13.618ZM108.109 11.3813L105.046 16.5408L107.831 18.1938L110.741 16.7729L108.109 11.3813ZM126.959 2.17725L124.813 -3.42593L124.565 -3.33094L124.327 -3.21439L126.959 2.17725ZM130.713 0.739825L129.226 -5.07316L128.89 -4.98731L128.567 -4.86335L130.713 0.739825ZM132.58 0.262328L131.844 -5.6924L131.465 -5.64547L131.094 -5.55066L132.58 0.262328ZM134.703 0L137.96 -5.03914L136.13 -6.22189L133.968 -5.95473L134.703 0ZM143.599 0.52575L142.265 -1.59226L132.112 4.80442L133.446 6.92243L143.599 0.52575ZM144.788 3.96213L144.327 2.20345L132.719 5.24473L133.18 7.0034L144.788 3.96213ZM144.868 8.60736L144.979 5.71305L132.988 5.25248L132.877 8.14679L144.868 8.60736ZM144.683 13.4313L144.868 8.60735L132.877 8.14679L132.692 12.9707L144.683 13.4313ZM144.516 17.7728L144.683 13.4313L132.692 12.9707L132.525 17.3123L144.516 17.7728ZM144.331 22.5967L144.516 17.7728L132.525 17.3122L132.34 22.1362L144.331 22.5967ZM141.709 41.3851L144.276 23.2053L132.394 21.5275L129.827 39.7073L141.709 41.3851ZM152.683 79.1755C152.683 65.1481 148.297 50.4669 140.986 37.5848L130.55 43.5077C137.007 54.8864 140.683 67.5465 140.683 79.1755H152.683ZM81.6714 120.749C99.1426 120.749 116.639 120.599 129.697 115.55C136.451 112.938 142.365 108.906 146.522 102.682C150.662 96.4842 152.683 88.6782 152.683 79.1755H140.683C140.683 86.9948 139.029 92.2964 136.544 96.0166C134.076 99.7106 130.416 102.406 125.369 104.357C114.826 108.434 99.8164 108.749 81.6714 108.749V120.749ZM14.6826 79.1755C14.6826 88.5311 16.3915 96.2409 20.0403 102.405C23.7423 108.66 29.1269 112.793 35.485 115.48C41.7224 118.116 48.9503 119.389 56.6078 120.04C64.285 120.694 72.7925 120.749 81.6714 120.749V108.749C72.7422 108.749 64.722 108.687 57.6249 108.084C50.508 107.478 44.7146 106.353 40.1569 104.427C35.7198 102.552 32.5353 99.9564 30.3669 96.2931C28.1453 92.5398 26.6826 87.1419 26.6826 79.1755H14.6826ZM23.7081 40.4637C17.94 52.6819 14.6826 66.2463 14.6826 79.1755H26.6826C26.6826 68.1816 29.4746 56.358 34.5597 45.5866L23.7081 40.4637ZM31.2387 49.144L33.068 47.5553L25.1998 38.4949L23.3704 40.0836L31.2387 49.144ZM18.693 26.5403L21.3635 45.4527L33.2456 43.7749L30.5752 24.8625L18.693 26.5403ZM18.4532 21.1078L18.6385 25.9317L30.6297 25.4711L30.4444 20.6472L18.4532 21.1078ZM18.2865 16.7662L18.4532 21.1078L30.4444 20.6472L30.2776 16.3057L18.2865 16.7662ZM18.1012 11.9423L18.2865 16.7662L30.2776 16.3057L30.0924 11.4818L18.1012 11.9423ZM17.99 9.04802L18.1012 11.9423L30.0924 11.4818L29.9812 8.58746L17.99 9.04802ZM18.6423 5.53842L18.1815 7.29709L29.7897 10.3384L30.2505 8.57971L18.6423 5.53842ZM20.7043 1.74272L19.3699 3.86073L29.5229 10.2574L30.8573 8.13939L20.7043 1.74272ZM25.009 -1.70417L22.524 -0.0980877L29.0376 9.9802L31.5226 8.37412L25.009 -1.70417ZM31.1248 -2.35743L29.0015 -2.61975L27.5301 9.28971L29.6535 9.55203L31.1248 -2.35743ZM33.743 -1.73819L31.8755 -2.21568L28.9028 9.41029L30.7703 9.88779L33.743 -1.73819ZM38.1559 -0.0909581L34.4024 -1.52838L30.1109 9.67798L33.8643 11.1154L38.1559 -0.0909581ZM55.244 8.22639L38.6427 0.120585L33.3776 10.9039L49.9789 19.0097L55.244 8.22639ZM81.6714 -2.25774C69.4621 -2.25774 58.4266 1.98101 49.0862 8.76285L56.1367 18.4732C63.7431 12.9503 72.3591 9.74226 81.6714 9.74226V-2.25774ZM111.171 6.22167C102.293 0.952272 92.2936 -2.25774 81.6714 -2.25774V9.74226C89.8208 9.74226 97.7286 12.1975 105.046 16.5408L111.171 6.22167ZM124.327 -3.21439L105.476 5.98961L110.741 16.7729L129.592 7.56888L124.327 -3.21439ZM128.567 -4.86335L124.813 -3.42593L129.105 7.78043L132.858 6.343L128.567 -4.86335ZM131.094 -5.55066L129.226 -5.07316L132.199 6.55281L134.066 6.07532L131.094 -5.55066ZM133.968 -5.95473L131.844 -5.6924L133.316 6.21706L135.439 5.95473L133.968 -5.95473ZM140.445 -3.43306L137.96 -5.03914L131.447 5.03914L133.932 6.64522L140.445 -3.43306Z" fill="#616153" mask="url(#path-1-inside-1_1226_3238)"/>
<path d="M87.573 84.6036C87.6093 83.1161 86.3852 82.1187 85.1858 82.0826C83.9863 82.0464 82.6663 83.0151 82.63 84.5026C82.6254 84.6946 82.6675 84.936 82.6605 85.2239C82.657 85.3678 82.6534 85.5118 82.6499 85.6557C82.5961 87.8631 81.9185 92.0205 76.0652 91.844C72.035 91.7225 69.5764 88.1909 69.6619 84.688C69.7438 81.329 70.6929 79.8209 73.1444 77.7339C73.7822 77.1768 74.0865 76.5137 74.1017 75.8899C74.1368 74.4503 72.8262 73.0662 71.3389 73.0214C69.2278 72.9578 64.76 77.0009 64.582 84.2947C64.4053 91.5406 69.0767 96.8677 75.8416 97.0716C82.3667 97.2683 84.8896 92.2541 85.2431 91.5445C86.4799 93.9828 88.9853 95.595 92.2478 95.6933C98.581 95.8842 101.579 91.0765 101.702 86.038C101.841 80.3277 98.436 76.2393 96.4689 76.18C95.0775 76.138 93.8465 77.3975 93.8137 78.7411C93.7996 79.3169 93.9775 79.8985 94.4936 80.3943C95.5245 81.4338 96.9252 83.0607 96.862 85.652C96.7859 88.771 94.5309 90.6719 92.4679 90.6097C92.4199 90.6083 92.3719 90.6068 92.3239 90.6054C89.4452 90.5186 87.5624 88.9732 87.5379 86.0432L87.573 84.6036Z" fill="#616153"/>
<rect x="65" y="7.55371" width="7" height="24" rx="3.5" fill="#616153"/>
<rect x="79" y="7.55371" width="7" height="24" rx="3.5" fill="#616153"/>
<rect x="93" y="7.55371" width="8" height="24" rx="4" fill="#616153"/>
<path d="M34.4766 19.0867C34.2814 17.4238 35.8673 16.143 37.2296 16.8633L49.0692 23.1229C50.3438 23.7968 50.4681 25.7433 49.297 26.6892L39.154 34.8813C37.9829 35.8273 36.3559 35.0943 36.1733 33.5385L34.4766 19.0867Z" fill="#D9D9D9"/>
<path d="M129.168 16.8631C129.363 15.2002 127.777 13.9194 126.415 14.6396L114.575 20.8992C113.301 21.5731 113.176 23.5197 114.348 24.4656L124.491 32.6577C125.662 33.6036 127.289 32.8707 127.471 31.3148L129.168 16.8631Z" fill="#D9D9D9"/>
<rect x="2.00635" width="75.2216" height="30.2205" rx="15.1103" transform="matrix(0.668783 -0.743458 0.668783 0.743458 0.664537 93.8369)" fill="#F5F5F5" stroke="#616153" stroke-width="3"/>
<rect width="4.22922" height="19.0315" rx="2.11461" transform="matrix(0.668783 0.743458 -0.668783 0.743458 55.9111 42.4907)" fill="#616153"/>
<rect width="4.22922" height="19.0315" rx="2.11461" transform="matrix(0.668783 0.743458 -0.668783 0.743458 60.9102 46.9375)" fill="#616153"/>
<rect width="4.22922" height="19.0315" rx="2.11461" transform="matrix(0.668783 0.743458 -0.668783 0.743458 64.9102 52.4956)" fill="#616153"/>
<rect x="-2.00635" width="75.0203" height="30.2206" rx="15.1103" transform="matrix(-0.668783 -0.743458 -0.668783 0.743458 164.911 89.7549)" fill="#F5F5F5" stroke="#616153" stroke-width="3"/>
<rect width="4.22922" height="19.0315" rx="2.11461" transform="matrix(-0.668783 0.743458 0.668783 0.743458 113.154 41.3794)" fill="#616153"/>
<rect width="4.22922" height="19.0315" rx="2.11461" transform="matrix(-0.668783 0.743458 0.668783 0.743458 108.154 45.8257)" fill="#616153"/>
<rect width="4.22922" height="19.0315" rx="2.11461" transform="matrix(-0.668783 0.743458 0.668783 0.743458 104.154 51.3843)" fill="#616153"/>
</svg>
