<svg width="232" height="130" viewBox="0 0 232 130" fill="none" xmlns="http://www.w3.org/2000/svg">
<g clip-path="url(#clip0_1510_3240)">
<mask id="path-1-inside-1_1510_3240" fill="white">
<path fill-rule="evenodd" clip-rule="evenodd" d="M170.523 16.7241L169.188 14.6061L166.703 13L164.58 13.2623L162.713 13.7398L158.959 15.1772L140.109 24.3813C132.011 19.5749 123.057 16.7423 113.671 16.7423C102.911 16.7423 93.0848 20.4657 84.6114 26.618L68.0101 18.5122L64.2567 17.0748L62.3892 16.5973L60.2658 16.335L57.7808 17.9411L56.4464 20.0591L55.9856 21.8177L56.0968 24.712L56.2821 29.536L56.4488 33.8775L56.6341 38.7014L59.3046 57.6138L61.1339 56.0251C55.7073 67.5199 52.6826 80.214 52.6826 92.1755C52.6826 126.82 78.0552 127.749 113.671 127.749C149.288 127.749 178.683 126.82 178.683 92.1755C178.683 79.3473 174.652 65.6766 167.768 53.5462L170.335 35.3664L170.52 30.5425L170.687 26.201L170.872 21.3771L170.984 18.4828L170.523 16.7241Z"/>
</mask>
<path fill-rule="evenodd" clip-rule="evenodd" d="M170.523 16.7241L169.188 14.6061L166.703 13L164.58 13.2623L162.713 13.7398L158.959 15.1772L140.109 24.3813C132.011 19.5749 123.057 16.7423 113.671 16.7423C102.911 16.7423 93.0848 20.4657 84.6114 26.618L68.0101 18.5122L64.2567 17.0748L62.3892 16.5973L60.2658 16.335L57.7808 17.9411L56.4464 20.0591L55.9856 21.8177L56.0968 24.712L56.2821 29.536L56.4488 33.8775L56.6341 38.7014L59.3046 57.6138L61.1339 56.0251C55.7073 67.5199 52.6826 80.214 52.6826 92.1755C52.6826 126.82 78.0552 127.749 113.671 127.749C149.288 127.749 178.683 126.82 178.683 92.1755C178.683 79.3473 174.652 65.6766 167.768 53.5462L170.335 35.3664L170.52 30.5425L170.687 26.201L170.872 21.3771L170.984 18.4828L170.523 16.7241Z" fill="#F5F5F5"/>
<path d="M169.188 14.6061L174.265 11.4077L173.558 10.2864L172.445 9.56694L169.188 14.6061ZM170.523 16.7241L176.327 15.2034L176.092 14.3085L175.599 13.5258L170.523 16.7241ZM166.703 13L169.96 7.96086L168.13 6.77811L165.968 7.04527L166.703 13ZM164.58 13.2623L163.844 7.3076L163.465 7.35453L163.094 7.44934L164.58 13.2623ZM162.713 13.7398L161.226 7.92684L160.89 8.01269L160.567 8.13664L162.713 13.7398ZM158.959 15.1772L156.813 9.57407L156.565 9.66906L156.327 9.78561L158.959 15.1772ZM140.109 24.3813L137.046 29.5408L139.831 31.1938L142.741 29.7729L140.109 24.3813ZM84.6114 26.618L81.9789 32.0097L85.219 33.5917L88.1367 31.4732L84.6114 26.618ZM68.0101 18.5122L70.6427 13.1206L70.404 13.004L70.1559 12.909L68.0101 18.5122ZM64.2567 17.0748L66.4024 11.4716L66.0788 11.3477L65.743 11.2618L64.2567 17.0748ZM62.3892 16.5973L63.8755 10.7843L63.5047 10.6895L63.1248 10.6426L62.3892 16.5973ZM60.2658 16.335L61.0015 10.3802L58.839 10.1131L57.009 11.2958L60.2658 16.335ZM57.7808 17.9411L54.524 12.9019L53.4108 13.6213L52.7043 14.7427L57.7808 17.9411ZM56.4464 20.0591L51.3699 16.8607L50.8768 17.6435L50.6423 18.5384L56.4464 20.0591ZM55.9856 21.8177L50.1815 20.2971L49.9559 21.1584L49.99 22.048L55.9856 21.8177ZM56.0968 24.712L50.1012 24.9423V24.9423L56.0968 24.712ZM56.2821 29.536L62.2776 29.3057L56.2821 29.536ZM56.4488 33.8775L50.4532 34.1078V34.1078L56.4488 33.8775ZM56.6341 38.7014L50.6385 38.9317L50.6503 39.2374L50.693 39.5403L56.6341 38.7014ZM59.3046 57.6138L53.3635 58.4527L54.9064 69.3799L63.2387 62.144L59.3046 57.6138ZM61.1339 56.0251L66.5597 58.5866L57.1998 51.4949L61.1339 56.0251ZM167.768 53.5462L161.827 52.7073L161.541 54.7306L162.55 56.5077L167.768 53.5462ZM170.335 35.3664L176.276 36.2053L176.319 35.9024L176.331 35.5967L170.335 35.3664ZM170.52 30.5425L176.516 30.7728V30.7728L170.52 30.5425ZM170.687 26.201L164.692 25.9707V25.9707L170.687 26.201ZM170.872 21.3771L164.877 21.1468V21.1468L170.872 21.3771ZM170.984 18.4828L176.979 18.713L177.013 17.8234L176.788 16.9621L170.984 18.4828ZM164.112 17.8044L165.446 19.9224L175.599 13.5258L174.265 11.4077L164.112 17.8044ZM163.447 18.0391L165.932 19.6452L172.445 9.56694L169.96 7.96086L163.447 18.0391ZM165.316 19.2171L167.439 18.9547L165.968 7.04527L163.844 7.3076L165.316 19.2171ZM164.199 19.5528L166.066 19.0753L163.094 7.44934L161.226 7.92684L164.199 19.5528ZM161.105 20.7804L164.858 19.343L160.567 8.13664L156.813 9.57407L161.105 20.7804ZM142.741 29.7729L161.592 20.5689L156.327 9.78561L137.476 18.9896L142.741 29.7729ZM113.671 22.7423C121.821 22.7423 129.729 25.1975 137.046 29.5408L143.171 19.2217C134.293 13.9523 124.294 10.7423 113.671 10.7423V22.7423ZM88.1367 31.4732C95.7431 25.9503 104.359 22.7423 113.671 22.7423V10.7423C101.462 10.7423 90.4266 14.981 81.0862 21.7629L88.1367 31.4732ZM65.3776 23.9039L81.9789 32.0097L87.244 21.2264L70.6427 13.1206L65.3776 23.9039ZM62.1109 22.678L65.8643 24.1154L70.1559 12.909L66.4024 11.4716L62.1109 22.678ZM60.9028 22.4103L62.7703 22.8878L65.743 11.2618L63.8755 10.7843L60.9028 22.4103ZM59.5301 22.2897L61.6535 22.552L63.1248 10.6426L61.0015 10.3802L59.5301 22.2897ZM61.0376 22.9802L63.5226 21.3741L57.009 11.2958L54.524 12.9019L61.0376 22.9802ZM61.5229 23.2574L62.8573 21.1394L52.7043 14.7427L51.3699 16.8607L61.5229 23.2574ZM61.7897 23.3384L62.2505 21.5797L50.6423 18.5384L50.1815 20.2971L61.7897 23.3384ZM62.0924 24.4818L61.9812 21.5875L49.99 22.048L50.1012 24.9423L62.0924 24.4818ZM62.2776 29.3057L62.0924 24.4818L50.1012 24.9423L50.2865 29.7662L62.2776 29.3057ZM62.4444 33.6472L62.2776 29.3057L50.2865 29.7662L50.4532 34.1078L62.4444 33.6472ZM62.6297 38.4711L62.4444 33.6472L50.4532 34.1078L50.6385 38.9317L62.6297 38.4711ZM65.2456 56.7749L62.5752 37.8625L50.693 39.5403L53.3635 58.4527L65.2456 56.7749ZM57.1998 51.4949L55.3704 53.0836L63.2387 62.144L65.068 60.5553L57.1998 51.4949ZM58.6826 92.1755C58.6826 81.1816 61.4746 69.358 66.5597 58.5866L55.7081 53.4637C49.94 65.6819 46.6826 79.2463 46.6826 92.1755H58.6826ZM113.671 121.749C104.742 121.749 96.722 121.687 89.6249 121.084C82.508 120.478 76.7146 119.353 72.1569 117.427C67.7198 115.552 64.5353 112.956 62.3669 109.293C60.1453 105.54 58.6826 100.142 58.6826 92.1755H46.6826C46.6826 101.531 48.3915 109.241 52.0403 115.405C55.7423 121.66 61.1269 125.793 67.485 128.48C73.7224 131.116 80.9503 132.389 88.6078 133.04C96.285 133.694 104.793 133.749 113.671 133.749V121.749ZM172.683 92.1755C172.683 99.9948 171.029 105.296 168.544 109.017C166.076 112.711 162.416 115.406 157.369 117.357C146.826 121.434 131.816 121.749 113.671 121.749V133.749C131.143 133.749 148.639 133.599 161.697 128.55C168.451 125.938 174.365 121.906 178.522 115.682C182.662 109.484 184.683 101.678 184.683 92.1755H172.683ZM162.55 56.5077C169.007 67.8864 172.683 80.5465 172.683 92.1755H184.683C184.683 78.1481 180.297 63.4669 172.986 50.5848L162.55 56.5077ZM164.394 34.5275L161.827 52.7073L173.709 54.3851L176.276 36.2053L164.394 34.5275ZM164.525 30.3122L164.34 35.1362L176.331 35.5967L176.516 30.7728L164.525 30.3122ZM164.692 25.9707L164.525 30.3123L176.516 30.7728L176.683 26.4313L164.692 25.9707ZM164.877 21.1468L164.692 25.9707L176.683 26.4313L176.868 21.6074L164.877 21.1468ZM164.988 18.2525L164.877 21.1468L176.868 21.6074L176.979 18.713L164.988 18.2525ZM164.719 18.2447L165.18 20.0034L176.788 16.9621L176.327 15.2034L164.719 18.2447Z" fill="#616153" mask="url(#path-1-inside-1_1510_3240)"/>
<path d="M119.573 97.6036C119.609 96.1161 118.385 95.1187 117.186 95.0826C115.986 95.0464 114.666 96.0151 114.63 97.5026C114.625 97.6946 114.667 97.936 114.66 98.2239C114.657 98.3678 114.653 98.5118 114.65 98.6557C114.596 100.863 113.919 105.02 108.065 104.844C104.035 104.723 101.576 101.191 101.662 97.688C101.744 94.329 102.693 92.8209 105.144 90.7339C105.782 90.1768 106.086 89.5137 106.102 88.8899C106.137 87.4503 104.826 86.0662 103.339 86.0214C101.228 85.9578 96.76 90.0009 96.582 97.2947C96.4053 104.541 101.077 109.868 107.842 110.072C114.367 110.268 116.89 105.254 117.243 104.544C118.48 106.983 120.985 108.595 124.248 108.693C130.581 108.884 133.579 104.076 133.702 99.038C133.841 93.3277 130.436 89.2393 128.469 89.18C127.078 89.138 125.846 90.3975 125.814 91.7411C125.8 92.3169 125.978 92.8985 126.494 93.3943C127.525 94.4338 128.925 96.0607 128.862 98.652C128.786 101.771 126.531 103.672 124.468 103.61C124.42 103.608 124.372 103.607 124.324 103.605C121.445 103.519 119.562 101.973 119.538 99.0432L119.573 97.6036Z" fill="#616153"/>
<rect x="97" y="20.5537" width="7" height="24" rx="3.5" fill="#616153"/>
<rect x="111" y="20.5537" width="7" height="24" rx="3.5" fill="#616153"/>
<rect x="125" y="20.5537" width="8" height="24" rx="4" fill="#616153"/>
<path d="M66.4766 32.0867C66.2814 30.4238 67.8673 29.143 69.2296 29.8633L81.0692 36.1229C82.3438 36.7968 82.4681 38.7433 81.297 39.6892L71.154 47.8813C69.9829 48.8273 68.3559 48.0943 68.1733 46.5385L66.4766 32.0867Z" fill="#D9D9D9"/>
<path d="M161.168 29.8631C161.363 28.2002 159.777 26.9194 158.415 27.6396L146.575 33.8992C145.301 34.5731 145.176 36.5197 146.348 37.4656L156.491 45.6577C157.662 46.6036 159.289 45.8707 159.471 44.3148L161.168 29.8631Z" fill="#D9D9D9"/>
<rect x="2.00635" width="75.2216" height="30.2205" rx="15.1103" transform="matrix(0.668783 -0.743458 0.668783 0.743458 32.6645 106.837)" fill="#F5F5F5" stroke="#616153" stroke-width="3"/>
<rect width="4.22922" height="19.0315" rx="2.11461" transform="matrix(0.668783 0.743458 -0.668783 0.743458 87.9111 55.4907)" fill="#616153"/>
<rect width="4.22922" height="19.0315" rx="2.11461" transform="matrix(0.668783 0.743458 -0.668783 0.743458 92.9102 59.9375)" fill="#616153"/>
<rect width="4.22922" height="19.0315" rx="2.11461" transform="matrix(0.668783 0.743458 -0.668783 0.743458 96.9102 65.4956)" fill="#616153"/>
<rect x="-2.00635" width="75.0203" height="30.2206" rx="15.1103" transform="matrix(-0.668783 -0.743458 -0.668783 0.743458 196.911 102.755)" fill="#F5F5F5" stroke="#616153" stroke-width="3"/>
<rect width="4.22922" height="19.0315" rx="2.11461" transform="matrix(-0.668783 0.743458 0.668783 0.743458 145.154 54.3794)" fill="#616153"/>
<rect width="4.22922" height="19.0315" rx="2.11461" transform="matrix(-0.668783 0.743458 0.668783 0.743458 140.154 58.8257)" fill="#616153"/>
<rect width="4.22922" height="19.0315" rx="2.11461" transform="matrix(-0.668783 0.743458 0.668783 0.743458 136.154 64.3843)" fill="#616153"/>
</g>
<defs>
<clipPath id="clip0_1510_3240">
<rect width="232" height="130" fill="white"/>
</clipPath>
</defs>
</svg>
