<svg width="232" height="130" viewBox="0 0 232 130" fill="none" xmlns="http://www.w3.org/2000/svg">
<rect x="40" y="112" width="5" height="14" rx="2.5" fill="#616153"/>
<rect x="203" y="111" width="5" height="14" rx="2.5" fill="#616153"/>
<rect x="32" y="112" width="5" height="14" rx="2.5" fill="#616153"/>
<rect x="194" y="111" width="5" height="14" rx="2.5" fill="#616153"/>
<rect x="23" y="112" width="5" height="14" rx="2.5" fill="#616153"/>
<rect x="185" y="111" width="5" height="14" rx="2.5" fill="#616153"/>
<path d="M56 119.459C56 122.134 55.395 123.672 54.5902 124.619C53.7802 125.571 52.5179 126.22 50.5879 126.597C48.6406 126.976 46.2384 127.036 43.3787 126.983C42.3623 126.965 41.2757 126.931 40.1432 126.896C38.1905 126.836 36.1013 126.772 34 126.772C31.8987 126.772 29.8095 126.836 27.8568 126.896C26.7243 126.931 25.6377 126.965 24.6213 126.983C21.7616 127.036 19.3594 126.976 17.4121 126.597C15.4821 126.22 14.2198 125.571 13.4098 124.619C12.605 123.672 12 122.134 12 119.459C12 108.917 21.6334 100 34 100C46.3666 100 56 108.917 56 119.459Z" stroke="#616153" stroke-width="4"/>
<path d="M218 118.767C218 121.341 217.411 122.809 216.637 123.709C215.854 124.619 214.628 125.246 212.739 125.61C210.834 125.977 208.484 126.035 205.684 125.984C204.689 125.966 203.625 125.933 202.516 125.9C200.604 125.841 198.558 125.779 196.5 125.779C194.442 125.779 192.396 125.841 190.484 125.9C189.375 125.933 188.311 125.966 187.316 125.984C184.516 126.035 182.166 125.977 180.261 125.61C178.372 125.246 177.146 124.619 176.363 123.709C175.589 122.809 175 121.341 175 118.767C175 108.627 184.386 100 196.5 100C208.614 100 218 108.627 218 118.767Z" stroke="#616153" stroke-width="4"/>
<mask id="path-9-inside-1_1510_3239" fill="white">
<path fill-rule="evenodd" clip-rule="evenodd" d="M170.522 18.7241L169.188 16.6061L166.703 15L164.58 15.2623L162.712 15.7398L158.959 17.1772L140.108 26.3814C132.01 21.575 123.056 18.7423 113.67 18.7423C102.91 18.7423 93.084 22.4656 84.6107 28.6179L68.0096 20.5122L64.2562 19.0748L62.3887 18.5973L60.2653 18.335L57.7803 19.9411L56.4459 22.0591L55.9851 23.8177L56.0963 26.712L56.2816 31.536L56.4483 35.8775L56.6336 40.7014L59.3041 59.6138L61.1326 58.0259C55.7062 69.5205 52.6816 82.2142 52.6816 94.1755C52.6816 128.82 78.0543 129.749 113.67 129.749C149.287 129.749 178.682 128.82 178.682 94.1755C178.682 81.3475 174.651 67.6771 167.768 55.5469L170.335 37.3664L170.52 32.5425L170.687 28.201L170.872 23.3771L170.983 20.4828L170.522 18.7241Z"/>
</mask>
<path fill-rule="evenodd" clip-rule="evenodd" d="M170.522 18.7241L169.188 16.6061L166.703 15L164.58 15.2623L162.712 15.7398L158.959 17.1772L140.108 26.3814C132.01 21.575 123.056 18.7423 113.67 18.7423C102.91 18.7423 93.084 22.4656 84.6107 28.6179L68.0096 20.5122L64.2562 19.0748L62.3887 18.5973L60.2653 18.335L57.7803 19.9411L56.4459 22.0591L55.9851 23.8177L56.0963 26.712L56.2816 31.536L56.4483 35.8775L56.6336 40.7014L59.3041 59.6138L61.1326 58.0259C55.7062 69.5205 52.6816 82.2142 52.6816 94.1755C52.6816 128.82 78.0543 129.749 113.67 129.749C149.287 129.749 178.682 128.82 178.682 94.1755C178.682 81.3475 174.651 67.6771 167.768 55.5469L170.335 37.3664L170.52 32.5425L170.687 28.201L170.872 23.3771L170.983 20.4828L170.522 18.7241Z" fill="#F5F5F5"/>
<path d="M169.188 16.6061L174.264 13.4077L173.558 12.2864L172.445 11.5669L169.188 16.6061ZM170.522 18.7241L176.326 17.2034L176.092 16.3085L175.599 15.5258L170.522 18.7241ZM166.703 15L169.96 9.96086L168.13 8.77811L165.967 9.04527L166.703 15ZM164.58 15.2623L163.844 9.3076L163.464 9.35453L163.093 9.44934L164.58 15.2623ZM162.712 15.7398L161.226 9.92684L160.89 10.0127L160.566 10.1366L162.712 15.7398ZM158.959 17.1772L156.813 11.5741L156.565 11.6691L156.326 11.7856L158.959 17.1772ZM140.108 26.3814L137.045 31.541L139.83 33.1939L142.74 31.773L140.108 26.3814ZM84.6107 28.6179L81.9781 34.0095L85.2182 35.5915L88.1359 33.4731L84.6107 28.6179ZM68.0096 20.5122L70.6422 15.1206L70.4035 15.004L70.1554 14.909L68.0096 20.5122ZM64.2562 19.0748L66.4019 13.4716L66.0783 13.3477L65.7425 13.2618L64.2562 19.0748ZM62.3887 18.5973L63.875 12.7843L63.5042 12.6895L63.1244 12.6426L62.3887 18.5973ZM60.2653 18.335L61.001 12.3802L58.8385 12.1131L57.0085 13.2958L60.2653 18.335ZM57.7803 19.9411L54.5235 14.9019L53.4103 15.6213L52.7038 16.7427L57.7803 19.9411ZM56.4459 22.0591L51.3694 18.8607L50.8763 19.6435L50.6418 20.5384L56.4459 22.0591ZM55.9851 23.8177L50.181 22.2971L49.9554 23.1584L49.9896 24.048L55.9851 23.8177ZM56.0963 26.712L50.1007 26.9423V26.9423L56.0963 26.712ZM56.2816 31.536L62.2772 31.3057L56.2816 31.536ZM56.4483 35.8775L50.4528 36.1078L56.4483 35.8775ZM56.6336 40.7014L50.638 40.9317L50.6498 41.2374L50.6925 41.5403L56.6336 40.7014ZM59.3041 59.6138L53.363 60.4527L54.906 71.3799L63.2382 64.144L59.3041 59.6138ZM61.1326 58.0259L66.5584 60.5873L57.1985 53.4957L61.1326 58.0259ZM167.768 55.5469L161.826 54.708L161.541 56.7312L162.549 58.5083L167.768 55.5469ZM170.335 37.3664L176.276 38.2053L176.318 37.9024L176.33 37.5967L170.335 37.3664ZM170.52 32.5425L176.516 32.7728V32.7728L170.52 32.5425ZM170.687 28.201L164.691 27.9707V27.9707L170.687 28.201ZM170.872 23.3771L164.876 23.1468V23.1468L170.872 23.3771ZM170.983 20.4828L176.979 20.713L177.013 19.8234L176.787 18.9621L170.983 20.4828ZM164.111 19.8044L165.446 21.9224L175.599 15.5258L174.264 13.4077L164.111 19.8044ZM163.446 20.0391L165.931 21.6452L172.445 11.5669L169.96 9.96086L163.446 20.0391ZM165.315 21.2171L167.439 20.9547L165.967 9.04527L163.844 9.3076L165.315 21.2171ZM164.198 21.5528L166.066 21.0753L163.093 9.44934L161.226 9.92684L164.198 21.5528ZM161.104 22.7804L164.858 21.343L160.566 10.1366L156.813 11.5741L161.104 22.7804ZM142.74 31.773L161.591 22.5689L156.326 11.7856L137.475 20.9897L142.74 31.773ZM113.67 24.7423C121.82 24.7423 129.728 27.1976 137.045 31.541L143.17 21.2218C134.293 15.9523 124.293 12.7423 113.67 12.7423V24.7423ZM88.1359 33.4731C95.7423 27.9503 104.358 24.7423 113.67 24.7423V12.7423C101.461 12.7423 90.4258 16.9809 81.0854 23.7627L88.1359 33.4731ZM65.3771 25.9039L81.9781 34.0095L87.2432 23.2262L70.6422 15.1206L65.3771 25.9039ZM62.1104 24.678L65.8639 26.1154L70.1554 14.909L66.4019 13.4716L62.1104 24.678ZM60.9024 24.4103L62.7698 24.8878L65.7425 13.2618L63.875 12.7843L60.9024 24.4103ZM59.5296 24.2897L61.653 24.552L63.1244 12.6426L61.001 12.3802L59.5296 24.2897ZM61.0372 24.9802L63.5222 23.3741L57.0085 13.2958L54.5235 14.9019L61.0372 24.9802ZM61.5224 25.2574L62.8568 23.1394L52.7038 16.7427L51.3694 18.8607L61.5224 25.2574ZM61.7892 25.3384L62.25 23.5797L50.6418 20.5384L50.181 22.2971L61.7892 25.3384ZM62.0919 26.4818L61.9807 23.5875L49.9896 24.048L50.1007 26.9423L62.0919 26.4818ZM62.2772 31.3057L62.0919 26.4818L50.1007 26.9423L50.286 31.7662L62.2772 31.3057ZM62.4439 35.6472L62.2772 31.3057L50.286 31.7662L50.4528 36.1078L62.4439 35.6472ZM62.6292 40.4711L62.4439 35.6472L50.4528 36.1078L50.638 40.9317L62.6292 40.4711ZM65.2451 58.7749L62.5747 39.8625L50.6925 41.5403L53.363 60.4527L65.2451 58.7749ZM57.1985 53.4957L55.37 55.0836L63.2382 64.144L65.0667 62.5561L57.1985 53.4957ZM58.6816 94.1755C58.6816 83.1819 61.4735 71.3585 66.5584 60.5873L55.7068 55.4644C49.9389 67.6825 46.6816 81.2466 46.6816 94.1755H58.6816ZM113.67 123.749C104.741 123.749 96.7211 123.687 89.6239 123.084C82.507 122.478 76.7137 121.353 72.1559 119.427C67.7188 117.552 64.5343 114.956 62.3659 111.293C60.1444 107.54 58.6816 102.142 58.6816 94.1755H46.6816C46.6816 103.531 48.3905 111.241 52.0393 117.405C55.7413 123.66 61.126 127.793 67.4841 130.48C73.7214 133.116 80.9493 134.389 88.6068 135.04C96.284 135.694 104.792 135.749 113.67 135.749V123.749ZM172.682 94.1755C172.682 101.995 171.028 107.296 168.543 111.017C166.075 114.711 162.415 117.406 157.368 119.357C146.825 123.434 131.815 123.749 113.67 123.749V135.749C131.142 135.749 148.638 135.599 161.696 130.55C168.45 127.938 174.364 123.906 178.522 117.682C182.661 111.484 184.682 103.678 184.682 94.1755H172.682ZM162.549 58.5083C169.007 69.8869 172.682 82.5467 172.682 94.1755H184.682C184.682 80.1484 180.296 65.4674 172.986 52.5856L162.549 58.5083ZM164.394 36.5275L161.826 54.708L173.709 56.3858L176.276 38.2053L164.394 36.5275ZM164.524 32.3122L164.339 37.1361L176.33 37.5967L176.516 32.7728L164.524 32.3122ZM164.691 27.9707L164.524 32.3123L176.516 32.7728L176.682 28.4313L164.691 27.9707ZM164.876 23.1468L164.691 27.9707L176.682 28.4313L176.868 23.6074L164.876 23.1468ZM164.988 20.2525L164.876 23.1468L176.868 23.6074L176.979 20.713L164.988 20.2525ZM164.718 20.2447L165.179 22.0034L176.787 18.9621L176.326 17.2034L164.718 20.2447Z" fill="#616153" mask="url(#path-9-inside-1_1510_3239)"/>
<path d="M119.573 99.6031C119.609 98.1156 118.385 97.1183 117.186 97.0821C115.986 97.0459 114.666 98.0146 114.63 99.5021C114.625 99.6941 114.667 99.9355 114.66 100.223C114.657 100.367 114.653 100.511 114.65 100.655C114.596 102.863 113.919 107.02 108.065 106.844C104.035 106.722 101.576 103.19 101.662 99.6875C101.744 96.3285 102.693 94.8204 105.144 92.7334C105.782 92.1763 106.086 91.5132 106.102 90.8894C106.137 89.4498 104.826 88.0657 103.339 88.0209C101.228 87.9573 96.76 92.0004 96.582 99.2942C96.4053 106.54 101.077 111.867 107.842 112.071C114.367 112.268 116.89 107.254 117.243 106.544C118.48 108.982 120.985 110.594 124.248 110.693C130.581 110.884 133.579 106.076 133.702 101.037C133.841 95.3272 130.436 91.2388 128.469 91.1795C127.078 91.1376 125.846 92.397 125.814 93.7406C125.8 94.3164 125.978 94.8981 126.494 95.3938C127.525 96.4333 128.925 98.0603 128.862 100.651C128.786 103.771 126.531 105.671 124.468 105.609C124.42 105.608 124.372 105.606 124.324 105.605C121.445 105.518 119.562 103.973 119.538 101.043L119.573 99.6031Z" fill="#616153"/>
<rect x="98" y="23" width="6" height="23" rx="3" fill="#616153"/>
<rect x="112" y="23" width="6" height="23" rx="3" fill="#616153"/>
<rect x="125" y="23" width="7" height="23" rx="3.5" fill="#616153"/>
<path d="M66.4766 34.0862C66.2814 32.4233 67.8673 31.1425 69.2296 31.8628L81.0692 38.1224C82.3438 38.7963 82.4681 40.7428 81.297 41.6887L71.154 49.8809C69.9829 50.8268 68.3559 50.0938 68.1733 48.538L66.4766 34.0862Z" fill="#D9D9D9"/>
<path d="M161.168 31.8631C161.363 30.2002 159.777 28.9194 158.415 29.6396L146.575 35.8992C145.301 36.5731 145.176 38.5197 146.348 39.4656L156.491 47.6577C157.662 48.6036 159.289 47.8707 159.471 46.3148L161.168 31.8631Z" fill="#D9D9D9"/>
<rect width="7.00025" height="20.0093" rx="3.50013" transform="matrix(0.999812 0.0194004 -0.0156999 0.999877 85.3389 59.6489)" fill="#616153"/>
<rect width="7.00025" height="20.0093" rx="3.50013" transform="matrix(0.999812 0.0194004 -0.0156999 0.999877 139.34 59.6489)" fill="#616153"/>
</svg>
