<?xml version="1.0" encoding="iso-8859-1"?>
<!-- Generator: Adobe Illustrator 19.0.0, SVG Export Plug-In . SVG Version: 6.00 Build 0)  -->
<svg version="1.1" id="Layer_1" xmlns="http://www.w3.org/2000/svg" xmlns:xlink="http://www.w3.org/1999/xlink" x="0px" y="0px"
	 viewBox="0 0 512 512" style="enable-background:new 0 0 512 512;" xml:space="preserve">
<path style="fill:#FFD464;" d="M488,332c0-13.084,1.328-25.54,8-36c-37.416-3.728-64-35.96-64-72c0-26.148,13.264-48.044,36-60
	c-0.444-3.044,0-4.856,0-8c0-20,9.632-39.252,24-52C442.264,40.584,362.48,0,272,0C121.068,0,0,114.624,0,256s121.068,256,272,256
	c102.668,0,193.292-53.584,240-132C497.676,367.292,488,351.96,488,332z M272,348c-50.808,0-92-41.192-92-92s41.192-92,92-92
	c50.804,0,92,41.192,92,92S322.804,348,272,348z"/>
<g>
	<path style="fill:#F2C95F;" d="M264,164.368c-2.64-0.228-5.304-0.368-8-0.368c-50.808,0-92,41.192-92,92s41.192,92,92,92
		c2.696,0,5.36-0.14,8-0.368c-47.06-4.06-84-43.524-84-91.632S216.94,168.424,264,164.368z"/>
	<path style="fill:#F2C95F;" d="M488,332c0-13.084,1.328-25.54,8-36c-37.416-3.728-64-35.96-64-72c0-26.148,13.264-48.044,36-60
		c-0.444-3.044,0-4.856,0-8c0-20,9.632-39.252,24-52C442.264,40.584,362.48,0,272,0c-2.228,0-4.416,0.108-6.628,0.156
		C351.972,2.852,427.992,42.784,476,104c-14.368,12.752-24,32-24,52c0,3.144-0.444,4.956,0,8c-22.736,11.956-36,33.852-36,60
		c0,36.04,26.584,68.272,64,72c-6.672,10.46-8,22.916-8,36c0,19.96,9.676,35.292,24,48
		c-45.256,75.992-131.772,128.66-230.512,131.844C267.66,511.9,269.816,512,272,512c102.668,0,193.292-53.584,240-132
		C497.676,367.292,488,351.96,488,332z"/>
</g>
<path style="fill:#664B24;" d="M272,0C121.068,0,0,114.624,0,256c0,24.84,3.812,48.828,10.792,71.54c1.7,0.28,3.432,0.46,5.208,0.46
	c17.672,0,32-14.328,32-32v-64c0-8.836,7.164-16,16-16s16,7.164,16,16v28c0,8.836,7.164,16,16,16s16-7.164,16-16v-36
	c0-6.628,5.372-12,12-12c6.628,0,12,5.372,12,12v84c0,6.628,5.372,12,12,12s12-5.372,12-12V192c0-4.42,3.58-8,8-8s8,3.58,8,8v16
	c0,4.42,3.58,8,8,8s8-3.58,8-8v-16c0-4.42,3.58-8,8-8c3.784,0,6.936,2.632,7.768,6.164C224.348,173.984,247.004,164,272,164
	c49.736,0,90.236,39.48,91.92,88.8c0.008-0.268,0.08-0.528,0.08-0.8v-28c0-8.836,7.164-16,16-16s16,7.164,16,16v64
	c0,17.672,14.328,32,32,32s32-14.328,32-32v-6.416c-17.32-13.5-28-34.764-28-57.584c0-26.148,13.264-48.044,36-60
	c-0.444-3.044,0-4.856,0-8c0-20,9.632-39.252,24-52C442.264,40.584,362.48,0,272,0z"/>
<g>
	<path style="fill:#332612;" d="M116,212c-6.628,0-12,5.372-12,12v36c0,7.444-5.112,13.648-12,15.428
		c1.284,0.336,2.608,0.572,4,0.572c8.836,0,16-7.164,16-16v-36c0-5.216,3.348-9.612,8-11.264C118.744,212.288,117.412,212,116,212z"
		/>
	<path style="fill:#332612;" d="M160,184c-4.42,0-8,3.58-8,8v116c0,5.22-3.348,9.608-8,11.264c1.256,0.444,2.588,0.736,4,0.736
		c6.628,0,12-5.372,12-12V192c0-2.956,1.62-5.504,4-6.892C162.82,184.42,161.464,184,160,184z"/>
	<path style="fill:#332612;" d="M56,216c-8.836,0-16,7.164-16,16v64c0,16.28-12.168,29.692-27.904,31.708
		C13.38,327.876,14.676,328,16,328c17.672,0,32-14.328,32-32v-64c0-7.444,5.112-13.648,12-15.432C58.716,216.232,57.392,216,56,216z
		"/>
	<path style="fill:#332612;" d="M192,184c-4.42,0-8,3.58-8,8v16c0,2.956-1.62,5.504-4,6.892c1.18,0.688,2.536,1.108,4,1.108
		c4.42,0,8-3.58,8-8v-16c0-2.964,1.628-5.52,4.02-6.904C194.836,184.408,193.472,184,192,184z"/>
	<path style="fill:#332612;" d="M272,0c-0.996,0-1.98,0.06-2.972,0.072C357.428,1.548,435.192,41.764,484,104
		c-14.368,12.752-24,32-24,52c0,3.144-0.444,4.956,0,8c-22.736,11.956-36,33.852-36,60c0,22.82,10.68,44.084,28,57.584V288
		c0,16.316-12.22,29.752-28,31.728c1.312,0.164,2.644,0.272,4,0.272c17.672,0,32-14.328,32-32v-6.416
		c-17.32-13.5-28-34.764-28-57.584c0-26.148,13.264-48.044,36-60c-0.444-3.044,0-4.856,0-8c0-20,9.632-39.252,24-52
		C442.264,40.584,362.48,0,272,0z"/>
	<path style="fill:#332612;" d="M264,164c-22.56,0-43.196,8.152-59.196,21.632c1.456,1.108,2.532,2.692,2.964,4.532
		C223.46,174.848,244.6,165.1,268.012,164.1C266.68,164.044,265.344,164,264,164z"/>
	<path style="fill:#332612;" d="M372,208c-7.416,0-13.584,5.068-15.408,11.904c4.336,10.16,6.924,21.248,7.328,32.896
		c0.008-0.268,0.08-0.528,0.08-0.8v-28c0-7.444,5.108-13.648,12-15.432C374.72,208.232,373.392,208,372,208z"/>
	<path style="fill:#332612;" d="M476,104c-14.368,12.752-24,32-24,52c0,3.144-0.444,4.956,0,8c-22.736,11.956-36,33.852-36,60
		c0,29.152,17.408,55.796,43.852,66.9c0.084-0.964,0.148-1.92,0.148-2.9v-6.416c-17.32-13.5-28-34.764-28-57.584
		c0-26.148,13.264-48.044,36-60c-0.444-3.044,0-4.856,0-8c0-20,9.632-39.252,24-52C442.264,40.584,362.48,0,272,0
		c-2.228,0-4.416,0.108-6.628,0.156C351.972,2.852,427.992,42.784,476,104z"/>
</g>
<path style="opacity:0.2;fill:#F5F5F5;enable-background:new    ;" d="M49.924,198.236c3.276-27.784,13.76-55.016,29.668-78.76
	C95.46,95.684,116.708,75.26,141.3,60.272c24.548-15.064,52.42-24.64,80.836-27.912c28.392-3.328,57.416-0.216,83.62,9.568
	c-27.744-3.264-55.24-2.584-81.68,2.768c-26.428,5.328-51.628,15.34-74.44,29.224c-22.784,13.94-43.184,31.808-59.996,52.884
	C72.808,147.892,59.66,172.056,49.924,198.236z"/>
<g>
</g>
<g>
</g>
<g>
</g>
<g>
</g>
<g>
</g>
<g>
</g>
<g>
</g>
<g>
</g>
<g>
</g>
<g>
</g>
<g>
</g>
<g>
</g>
<g>
</g>
<g>
</g>
<g>
</g>
</svg>
