<svg width="30" height="30" viewBox="0 0 30 30" fill="none" xmlns="http://www.w3.org/2000/svg">
<ellipse cx="8.13478" cy="13.6082" rx="2.41071" ry="2.14286" transform="rotate(57 8.13478 13.6082)" fill="#616153"/>
<ellipse cx="12.2485" cy="9.74319" rx="2.41071" ry="2.14286" transform="rotate(66 12.2485 9.74319)" fill="#616153"/>
<ellipse rx="2.41071" ry="2.14286" transform="matrix(-0.544639 0.838671 0.838671 0.544639 22.0633 13.0725)" fill="#616153"/>
<ellipse rx="2.41071" ry="2.14286" transform="matrix(-0.224951 0.97437 0.97437 0.224951 17.8335 9.50028)" fill="#616153"/>
<path d="M21.0103 19.2014C21.1143 19.798 21.0079 20.4537 20.5448 20.844C19.922 21.3688 19.0424 21.4263 18.0305 21.297C16.1404 21.0557 14.2492 20.9605 12.365 21.2442C10.8974 21.4652 9.82534 21.4241 9.42594 20.4954C9.32164 20.2529 9.30547 19.9833 9.32793 19.7203C9.56167 16.9832 12.1028 12.5623 15.2033 12.5623C18.1143 12.5623 20.5324 16.4597 21.0103 19.2014Z" fill="#616153"/>
<path d="M16.0069 22.473C12.664 21.8462 8.99522 24.3157 8.17834 21.4922C7.57901 19.4207 6.27113 17.4157 5.05118 15.6375C4.17735 14.3638 4.0465 12.7744 4.68519 11.6164C5.85581 9.49377 8.83779 7.23116 11.141 6.47566C13.1799 5.80688 15.9879 5.95022 18.1334 5.91741C18.4256 5.91295 18.7136 5.94385 18.9903 6.01624C21.3425 6.63156 24.1826 9.22368 25.1451 11.4563C25.8131 13.0057 25.4383 15.0996 23.4741 16.2804C22.683 16.756 21.9269 17.332 22.0868 18.2411C22.5061 20.6257 24.1869 24.4103 16.0069 22.473Z" stroke="#616153" stroke-width="0.6"/>
<circle cx="15" cy="15" r="14" stroke="#616153" stroke-width="2"/>
</svg>
