<svg width="50" height="50" viewBox="0 0 50 50" fill="none" xmlns="http://www.w3.org/2000/svg">
<path d="M50 25C50 25 40.625 7.8125 25 7.8125C9.375 7.8125 0 25 0 25C0 25 9.375 42.1875 25 42.1875C40.625 42.1875 50 25 50 25ZM3.66562 25C5.17661 22.7035 6.9145 20.5646 8.85312 18.6156C12.875 14.5875 18.375 10.9375 25 10.9375C31.625 10.9375 37.1219 14.5875 41.15 18.6156C43.0886 20.5646 44.8265 22.7035 46.3375 25C46.1563 25.2719 45.9563 25.5719 45.7281 25.9C44.6813 27.4 43.1344 29.4 41.15 31.3844C37.1219 35.4125 31.6219 39.0625 25 39.0625C18.375 39.0625 12.8781 35.4125 8.85 31.3844C6.91139 29.4353 5.1735 27.2965 3.6625 25H3.66562Z" fill="black"/>
<path d="M25 17.1875C22.928 17.1875 20.9409 18.0106 19.4757 19.4757C18.0106 20.9409 17.1875 22.928 17.1875 25C17.1875 27.072 18.0106 29.0591 19.4757 30.5243C20.9409 31.9894 22.928 32.8125 25 32.8125C27.072 32.8125 29.0591 31.9894 30.5243 30.5243C31.9894 29.0591 32.8125 27.072 32.8125 25C32.8125 22.928 31.9894 20.9409 30.5243 19.4757C29.0591 18.0106 27.072 17.1875 25 17.1875ZM14.0625 25C14.0625 22.0992 15.2148 19.3172 17.266 17.266C19.3172 15.2148 22.0992 14.0625 25 14.0625C27.9008 14.0625 30.6828 15.2148 32.734 17.266C34.7852 19.3172 35.9375 22.0992 35.9375 25C35.9375 27.9008 34.7852 30.6828 32.734 32.734C30.6828 34.7852 27.9008 35.9375 25 35.9375C22.0992 35.9375 19.3172 34.7852 17.266 32.734C15.2148 30.6828 14.0625 27.9008 14.0625 25Z" fill="black"/>
</svg>
