<svg width="50" height="50" viewBox="0 0 50 50" fill="none" xmlns="http://www.w3.org/2000/svg">
<path d="M41.7469 35.1187C47.0625 30.375 50 25 50 25C50 25 40.625 7.8125 25 7.8125C21.9987 7.82283 19.0314 8.4482 16.2812 9.65L18.6875 12.0594C20.7107 11.3224 22.8467 10.9427 25 10.9375C31.625 10.9375 37.1219 14.5875 41.15 18.6156C43.0886 20.5647 44.8265 22.7035 46.3375 25C46.1563 25.2719 45.9563 25.5719 45.7281 25.9C44.6813 27.4 43.1344 29.4 41.15 31.3844C40.6344 31.9 40.0969 32.4094 39.5344 32.9031L41.7469 35.1187Z" fill="black"/>
<path d="M35.3031 28.675C36.0005 26.7245 36.1296 24.6161 35.6755 22.5951C35.2214 20.5741 34.2028 18.7235 32.7381 17.2588C31.2734 15.7941 29.4228 14.7754 27.4018 14.3214C25.3808 13.8673 23.2724 13.9964 21.3219 14.6938L23.8938 17.2656C25.0947 17.0937 26.3192 17.2039 27.4702 17.5874C28.6212 17.9709 29.6671 18.6172 30.525 19.475C31.3828 20.3329 32.0291 21.3788 32.4126 22.5298C32.7961 23.6808 32.9063 24.9053 32.7344 26.1063L35.3031 28.675ZM26.1063 32.7344L28.675 35.3031C26.7245 36.0005 24.6161 36.1296 22.5951 35.6755C20.574 35.2214 18.7235 34.2028 17.2588 32.7381C15.7941 31.2734 14.7754 29.4228 14.3213 27.4018C13.8672 25.3808 13.9964 23.2724 14.6938 21.3219L17.2656 23.8938C17.0937 25.0947 17.2039 26.3192 17.5874 27.4702C17.9709 28.6212 18.6172 29.6671 19.475 30.525C20.3329 31.3828 21.3788 32.0291 22.5298 32.4126C23.6808 32.7961 24.9053 32.9063 26.1063 32.7344V32.7344Z" fill="black"/>
<path d="M10.4687 17.0938C9.90625 17.5938 9.36563 18.1 8.85 18.6157C6.91139 20.5647 5.1735 22.7036 3.6625 25L4.27187 25.9C5.31875 27.4 6.86563 29.4 8.85 31.3844C12.8781 35.4125 18.3781 39.0625 25 39.0625C27.2375 39.0625 29.3438 38.6469 31.3125 37.9376L33.7187 40.35C30.9686 41.5518 28.0013 42.1771 25 42.1875C9.375 42.1875 0 25 0 25C0 25 2.93438 19.6219 8.25313 14.8813L10.4656 17.0969L10.4687 17.0938ZM42.6437 44.8563L5.14375 7.3563L7.35625 5.1438L44.8563 42.6438L42.6437 44.8563Z" fill="black"/>
</svg>
