<svg width="200" height="200" viewBox="0 0 200 200" fill="none" xmlns="http://www.w3.org/2000/svg">
<circle cx="100" cy="100" r="100" fill="#5A5A4C"/>
<mask id="path-2-inside-1_1710_3261" fill="white">
<path fill-rule="evenodd" clip-rule="evenodd" d="M40.7477 43.35L42.0822 41.4448L44.5672 40L46.6905 40.236L48.558 40.6655L52.3115 41.9586L74.7541 51.8158C82.6375 48.8105 91.3407 47.1437 100.489 47.1437C109.593 47.1437 118.257 48.7945 126.11 51.7727L148.455 41.9586L152.208 40.6655L154.076 40.236L156.199 40L158.684 41.4448L160.018 43.35L160.479 44.9321L160.368 47.5357L160.183 51.875L160.016 55.7805L159.831 60.1199L157.224 76.7236C162.169 84.7076 164.978 93.8528 164.978 103.572C164.978 134.736 136.105 160 100.489 160C64.8726 160 36 134.736 36 103.572C36 93.9637 38.7444 84.9164 43.5847 76.9975L40.9355 60.1199L40.7502 55.7805L40.5834 51.875L40.3981 47.5357L40.287 44.9321L40.7477 43.35Z"/>
</mask>
<path d="M42.0822 41.4448L39.0664 36.2577L37.925 36.9213L37.1676 38.0027L42.0822 41.4448ZM40.7477 43.35L35.8332 39.908L35.2644 40.7202L34.9871 41.6722L40.7477 43.35ZM44.5672 40L45.2299 34.0367L43.2626 33.8181L41.5514 34.8129L44.5672 40ZM46.6905 40.236L48.0355 34.3887L47.6977 34.311L47.3533 34.2727L46.6905 40.236ZM48.558 40.6655L50.5122 34.9927L50.2122 34.8893L49.9029 34.8182L48.558 40.6655ZM52.3115 41.9586L54.7243 36.4651L54.4987 36.366L54.2657 36.2857L52.3115 41.9586ZM74.7541 51.8158L72.3413 57.3093L74.5932 58.2984L76.8914 57.4222L74.7541 51.8158ZM126.11 51.7727L123.983 57.3829L126.277 58.2528L128.523 57.2662L126.11 51.7727ZM148.455 41.9586L146.5 36.2857L146.267 36.366L146.042 36.4651L148.455 41.9586ZM152.208 40.6655L150.863 34.8182L150.554 34.8893L150.254 34.9927L152.208 40.6655ZM154.076 40.236L153.413 34.2727L153.068 34.311L152.731 34.3887L154.076 40.236ZM156.199 40L159.215 34.8129L157.503 33.8181L155.536 34.0367L156.199 40ZM158.684 41.4448L163.598 38.0027L162.841 36.9213L161.7 36.2577L158.684 41.4448ZM160.018 43.35L165.779 41.6723L165.502 40.7202L164.933 39.908L160.018 43.35ZM160.479 44.9321L166.474 45.188L166.516 44.2019L166.24 43.2543L160.479 44.9321ZM160.368 47.5357L154.373 47.2797L154.373 47.2797L160.368 47.5357ZM160.183 51.875L154.188 51.6191L154.188 51.6191L160.183 51.875ZM160.016 55.7805L166.01 56.0365L166.01 56.0364L160.016 55.7805ZM159.831 60.1199L165.758 61.0503L165.811 60.715L165.825 60.3758L159.831 60.1199ZM157.224 76.7236L151.297 75.7932L150.952 77.9913L152.124 79.883L157.224 76.7236ZM43.5847 76.9975L48.7041 80.1266L49.854 78.2453L49.5121 76.0671L43.5847 76.9975ZM40.9355 60.1199L34.9409 60.3758L34.9554 60.715L35.008 61.0503L40.9355 60.1199ZM40.7502 55.7805L46.7447 55.5246L46.7447 55.5246L40.7502 55.7805ZM40.5834 51.875L34.5889 52.131L34.5889 52.131L40.5834 51.875ZM40.3981 47.5357L34.4036 47.7916L34.4036 47.7916L40.3981 47.5357ZM40.287 44.9321L34.5263 43.2543L34.2503 44.2019L34.2924 45.188L40.287 44.9321ZM37.1676 38.0027L35.8332 39.908L45.6623 46.792L46.9967 44.8868L37.1676 38.0027ZM41.5514 34.8129L39.0664 36.2577L45.0979 46.6318L47.5829 45.1871L41.5514 34.8129ZM47.3533 34.2727L45.2299 34.0367L43.9044 45.9633L46.0278 46.1993L47.3533 34.2727ZM49.9029 34.8182L48.0355 34.3887L45.3456 46.0833L47.2131 46.5128L49.9029 34.8182ZM54.2657 36.2857L50.5122 34.9927L46.6038 46.3383L50.3572 47.6314L54.2657 36.2857ZM77.167 46.3224L54.7243 36.4651L49.8986 47.452L72.3413 57.3093L77.167 46.3224ZM100.489 41.1437C90.6109 41.1437 81.1833 42.9436 72.6168 46.2094L76.8914 57.4222C84.0916 54.6773 92.0705 53.1437 100.489 53.1437V41.1437ZM128.238 46.1626C119.704 42.9264 110.319 41.1437 100.489 41.1437V53.1437C108.867 53.1437 116.809 54.6627 123.983 57.3829L128.238 46.1626ZM146.042 36.4651L123.697 46.2792L128.523 57.2662L150.867 47.452L146.042 36.4651ZM150.254 34.9927L146.5 36.2857L150.409 47.6314L154.162 46.3383L150.254 34.9927ZM152.731 34.3887L150.863 34.8182L153.553 46.5128L155.42 46.0833L152.731 34.3887ZM155.536 34.0367L153.413 34.2727L154.738 46.1993L156.862 45.9633L155.536 34.0367ZM161.7 36.2577L159.215 34.8129L153.183 45.1871L155.668 46.6318L161.7 36.2577ZM164.933 39.908L163.598 38.0027L153.769 44.8868L155.104 46.7921L164.933 39.908ZM166.24 43.2543L165.779 41.6723L154.258 45.0278L154.718 46.6098L166.24 43.2543ZM166.362 47.7916L166.474 45.188L154.485 44.6761L154.373 47.2797L166.362 47.7916ZM166.177 52.131L166.362 47.7916L154.373 47.2797L154.188 51.6191L166.177 52.131ZM166.01 56.0364L166.177 52.131L154.188 51.6191L154.021 55.5246L166.01 56.0364ZM165.825 60.3758L166.01 56.0365L154.021 55.5245L153.836 59.8639L165.825 60.3758ZM163.152 77.654L165.758 61.0503L153.903 59.1895L151.297 75.7932L163.152 77.654ZM170.978 103.572C170.978 92.6698 167.822 82.4388 162.325 73.5643L152.124 79.883C156.517 86.9763 158.978 95.0358 158.978 103.572H170.978ZM100.489 166C138.641 166 170.978 138.777 170.978 103.572H158.978C158.978 130.695 133.569 154 100.489 154V166ZM30 103.572C30 138.777 62.3365 166 100.489 166V154C67.4087 154 42 130.695 42 103.572H30ZM38.4653 73.8683C33.0839 82.6726 30 92.7947 30 103.572H42C42 95.1327 44.4049 87.1603 48.7041 80.1266L38.4653 73.8683ZM35.008 61.0503L37.6573 77.9279L49.5121 76.0671L46.8629 59.1895L35.008 61.0503ZM34.7556 56.0364L34.9409 60.3758L46.93 59.8639L46.7447 55.5246L34.7556 56.0364ZM34.5889 52.131L34.7556 56.0365L46.7447 55.5246L46.578 51.6191L34.5889 52.131ZM34.4036 47.7916L34.5889 52.131L46.578 51.6191L46.3927 47.2797L34.4036 47.7916ZM34.2924 45.188L34.4036 47.7916L46.3927 47.2797L46.2815 44.6761L34.2924 45.188ZM34.9871 41.6722L34.5263 43.2543L46.0476 46.6098L46.5084 45.0278L34.9871 41.6722Z" fill="white" mask="url(#path-2-inside-1_1710_3261)"/>
<mask id="path-4-inside-2_1710_3261" fill="white">
<path fill-rule="evenodd" clip-rule="evenodd" d="M40.7477 43.35L42.0822 41.4448L44.5672 40L46.6905 40.236L48.558 40.6655L52.3115 41.9586L74.7541 51.8158C82.6375 48.8105 91.3407 47.1437 100.489 47.1437C109.593 47.1437 118.257 48.7945 126.11 51.7727L148.455 41.9586L152.208 40.6655L154.076 40.236L156.199 40L158.684 41.4448L160.018 43.35L160.479 44.9321L160.368 47.5357L160.183 51.875L160.016 55.7805L159.831 60.1199L157.224 76.7236C162.169 84.7076 164.978 93.8528 164.978 103.572C164.978 134.736 136.105 160 100.489 160C64.8726 160 36 134.736 36 103.572C36 93.9637 38.7444 84.9164 43.5847 76.9975L40.9355 60.1199L40.7502 55.7805L40.5834 51.875L40.3981 47.5357L40.287 44.9321L40.7477 43.35Z"/>
</mask>
<path d="M42.0822 41.4448L39.0664 36.2577L37.925 36.9213L37.1676 38.0027L42.0822 41.4448ZM40.7477 43.35L35.8332 39.908L35.2644 40.7202L34.9871 41.6722L40.7477 43.35ZM44.5672 40L45.2299 34.0367L43.2626 33.8181L41.5514 34.8129L44.5672 40ZM46.6905 40.236L48.0355 34.3887L47.6977 34.311L47.3533 34.2727L46.6905 40.236ZM48.558 40.6655L50.5122 34.9927L50.2122 34.8893L49.9029 34.8182L48.558 40.6655ZM52.3115 41.9586L54.7243 36.4651L54.4987 36.366L54.2657 36.2857L52.3115 41.9586ZM74.7541 51.8158L72.3413 57.3093L74.5932 58.2984L76.8914 57.4222L74.7541 51.8158ZM126.11 51.7727L123.983 57.3829L126.277 58.2528L128.523 57.2662L126.11 51.7727ZM148.455 41.9586L146.5 36.2857L146.267 36.366L146.042 36.4651L148.455 41.9586ZM152.208 40.6655L150.863 34.8182L150.554 34.8893L150.254 34.9927L152.208 40.6655ZM154.076 40.236L153.413 34.2727L153.068 34.311L152.731 34.3887L154.076 40.236ZM156.199 40L159.215 34.8129L157.503 33.8181L155.536 34.0367L156.199 40ZM158.684 41.4448L163.598 38.0027L162.841 36.9213L161.7 36.2577L158.684 41.4448ZM160.018 43.35L165.779 41.6723L165.502 40.7202L164.933 39.908L160.018 43.35ZM160.479 44.9321L166.474 45.188L166.516 44.2019L166.24 43.2543L160.479 44.9321ZM160.368 47.5357L154.373 47.2797L154.373 47.2797L160.368 47.5357ZM160.183 51.875L154.188 51.6191L154.188 51.6191L160.183 51.875ZM160.016 55.7805L166.01 56.0365L166.01 56.0364L160.016 55.7805ZM159.831 60.1199L165.758 61.0503L165.811 60.715L165.825 60.3758L159.831 60.1199ZM157.224 76.7236L151.297 75.7932L150.952 77.9913L152.124 79.883L157.224 76.7236ZM43.5847 76.9975L48.7041 80.1266L49.854 78.2453L49.5121 76.0671L43.5847 76.9975ZM40.9355 60.1199L34.9409 60.3758L34.9554 60.715L35.008 61.0503L40.9355 60.1199ZM40.7502 55.7805L46.7447 55.5246L46.7447 55.5246L40.7502 55.7805ZM40.5834 51.875L34.5889 52.131L34.5889 52.131L40.5834 51.875ZM40.3981 47.5357L34.4036 47.7916L34.4036 47.7916L40.3981 47.5357ZM40.287 44.9321L34.5263 43.2543L34.2503 44.2019L34.2924 45.188L40.287 44.9321ZM37.1676 38.0027L35.8332 39.908L45.6623 46.792L46.9967 44.8868L37.1676 38.0027ZM41.5514 34.8129L39.0664 36.2577L45.0979 46.6318L47.5829 45.1871L41.5514 34.8129ZM47.3533 34.2727L45.2299 34.0367L43.9044 45.9633L46.0278 46.1993L47.3533 34.2727ZM49.9029 34.8182L48.0355 34.3887L45.3456 46.0833L47.2131 46.5128L49.9029 34.8182ZM54.2657 36.2857L50.5122 34.9927L46.6038 46.3383L50.3572 47.6314L54.2657 36.2857ZM77.167 46.3224L54.7243 36.4651L49.8986 47.452L72.3413 57.3093L77.167 46.3224ZM100.489 41.1437C90.6109 41.1437 81.1833 42.9436 72.6168 46.2094L76.8914 57.4222C84.0916 54.6773 92.0705 53.1437 100.489 53.1437V41.1437ZM128.238 46.1626C119.704 42.9264 110.319 41.1437 100.489 41.1437V53.1437C108.867 53.1437 116.809 54.6627 123.983 57.3829L128.238 46.1626ZM146.042 36.4651L123.697 46.2792L128.523 57.2662L150.867 47.452L146.042 36.4651ZM150.254 34.9927L146.5 36.2857L150.409 47.6314L154.162 46.3383L150.254 34.9927ZM152.731 34.3887L150.863 34.8182L153.553 46.5128L155.42 46.0833L152.731 34.3887ZM155.536 34.0367L153.413 34.2727L154.738 46.1993L156.862 45.9633L155.536 34.0367ZM161.7 36.2577L159.215 34.8129L153.183 45.1871L155.668 46.6318L161.7 36.2577ZM164.933 39.908L163.598 38.0027L153.769 44.8868L155.104 46.7921L164.933 39.908ZM166.24 43.2543L165.779 41.6723L154.258 45.0278L154.718 46.6098L166.24 43.2543ZM166.362 47.7916L166.474 45.188L154.485 44.6761L154.373 47.2797L166.362 47.7916ZM166.177 52.131L166.362 47.7916L154.373 47.2797L154.188 51.6191L166.177 52.131ZM166.01 56.0364L166.177 52.131L154.188 51.6191L154.021 55.5246L166.01 56.0364ZM165.825 60.3758L166.01 56.0365L154.021 55.5245L153.836 59.8639L165.825 60.3758ZM163.152 77.654L165.758 61.0503L153.903 59.1895L151.297 75.7932L163.152 77.654ZM170.978 103.572C170.978 92.6698 167.822 82.4388 162.325 73.5643L152.124 79.883C156.517 86.9763 158.978 95.0358 158.978 103.572H170.978ZM100.489 166C138.641 166 170.978 138.777 170.978 103.572H158.978C158.978 130.695 133.569 154 100.489 154V166ZM30 103.572C30 138.777 62.3365 166 100.489 166V154C67.4087 154 42 130.695 42 103.572H30ZM38.4653 73.8683C33.0839 82.6726 30 92.7947 30 103.572H42C42 95.1327 44.4049 87.1603 48.7041 80.1266L38.4653 73.8683ZM35.008 61.0503L37.6573 77.9279L49.5121 76.0671L46.8629 59.1895L35.008 61.0503ZM34.7556 56.0364L34.9409 60.3758L46.93 59.8639L46.7447 55.5246L34.7556 56.0364ZM34.5889 52.131L34.7556 56.0365L46.7447 55.5246L46.578 51.6191L34.5889 52.131ZM34.4036 47.7916L34.5889 52.131L46.578 51.6191L46.3927 47.2797L34.4036 47.7916ZM34.2924 45.188L34.4036 47.7916L46.3927 47.2797L46.2815 44.6761L34.2924 45.188ZM34.9871 41.6722L34.5263 43.2543L46.0476 46.6098L46.5084 45.0278L34.9871 41.6722Z" fill="white" mask="url(#path-4-inside-2_1710_3261)"/>
<mask id="path-6-inside-3_1710_3261" fill="white">
<path fill-rule="evenodd" clip-rule="evenodd" d="M40.7477 43.35L42.0822 41.4448L44.5672 40L46.6905 40.236L48.558 40.6655L52.3115 41.9586L74.7541 51.8158C82.6375 48.8105 91.3407 47.1437 100.489 47.1437C109.593 47.1437 118.257 48.7945 126.11 51.7727L148.455 41.9586L152.208 40.6655L154.076 40.236L156.199 40L158.684 41.4448L160.018 43.35L160.479 44.9321L160.368 47.5357L160.183 51.875L160.016 55.7805L159.831 60.1199L157.224 76.7236C162.169 84.7076 164.978 93.8528 164.978 103.572C164.978 134.736 136.105 160 100.489 160C64.8726 160 36 134.736 36 103.572C36 93.9637 38.7444 84.9164 43.5847 76.9975L40.9355 60.1199L40.7502 55.7805L40.5834 51.875L40.3981 47.5357L40.287 44.9321L40.7477 43.35Z"/>
</mask>
<path d="M42.0822 41.4448L39.0664 36.2577L37.925 36.9213L37.1676 38.0027L42.0822 41.4448ZM40.7477 43.35L35.8332 39.908L35.2644 40.7202L34.9871 41.6722L40.7477 43.35ZM44.5672 40L45.2299 34.0367L43.2626 33.8181L41.5514 34.8129L44.5672 40ZM46.6905 40.236L48.0355 34.3887L47.6977 34.311L47.3533 34.2727L46.6905 40.236ZM48.558 40.6655L50.5122 34.9927L50.2122 34.8893L49.9029 34.8182L48.558 40.6655ZM52.3115 41.9586L54.7243 36.4651L54.4987 36.366L54.2657 36.2857L52.3115 41.9586ZM74.7541 51.8158L72.3413 57.3093L74.5932 58.2984L76.8914 57.4222L74.7541 51.8158ZM126.11 51.7727L123.983 57.3829L126.277 58.2528L128.523 57.2662L126.11 51.7727ZM148.455 41.9586L146.5 36.2857L146.267 36.366L146.042 36.4651L148.455 41.9586ZM152.208 40.6655L150.863 34.8182L150.554 34.8893L150.254 34.9927L152.208 40.6655ZM154.076 40.236L153.413 34.2727L153.068 34.311L152.731 34.3887L154.076 40.236ZM156.199 40L159.215 34.8129L157.503 33.8181L155.536 34.0367L156.199 40ZM158.684 41.4448L163.598 38.0027L162.841 36.9213L161.7 36.2577L158.684 41.4448ZM160.018 43.35L165.779 41.6723L165.502 40.7202L164.933 39.908L160.018 43.35ZM160.479 44.9321L166.474 45.188L166.516 44.2019L166.24 43.2543L160.479 44.9321ZM160.368 47.5357L154.373 47.2797L154.373 47.2797L160.368 47.5357ZM160.183 51.875L154.188 51.6191L154.188 51.6191L160.183 51.875ZM160.016 55.7805L166.01 56.0365L166.01 56.0364L160.016 55.7805ZM159.831 60.1199L165.758 61.0503L165.811 60.715L165.825 60.3758L159.831 60.1199ZM157.224 76.7236L151.297 75.7932L150.952 77.9913L152.124 79.883L157.224 76.7236ZM43.5847 76.9975L48.7041 80.1266L49.854 78.2453L49.5121 76.0671L43.5847 76.9975ZM40.9355 60.1199L34.9409 60.3758L34.9554 60.715L35.008 61.0503L40.9355 60.1199ZM40.7502 55.7805L46.7447 55.5246L46.7447 55.5246L40.7502 55.7805ZM40.5834 51.875L34.5889 52.131L34.5889 52.131L40.5834 51.875ZM40.3981 47.5357L34.4036 47.7916L34.4036 47.7916L40.3981 47.5357ZM40.287 44.9321L34.5263 43.2543L34.2503 44.2019L34.2924 45.188L40.287 44.9321ZM37.1676 38.0027L35.8332 39.908L45.6623 46.792L46.9967 44.8868L37.1676 38.0027ZM41.5514 34.8129L39.0664 36.2577L45.0979 46.6318L47.5829 45.1871L41.5514 34.8129ZM47.3533 34.2727L45.2299 34.0367L43.9044 45.9633L46.0278 46.1993L47.3533 34.2727ZM49.9029 34.8182L48.0355 34.3887L45.3456 46.0833L47.2131 46.5128L49.9029 34.8182ZM54.2657 36.2857L50.5122 34.9927L46.6038 46.3383L50.3572 47.6314L54.2657 36.2857ZM77.167 46.3224L54.7243 36.4651L49.8986 47.452L72.3413 57.3093L77.167 46.3224ZM100.489 41.1437C90.6109 41.1437 81.1833 42.9436 72.6168 46.2094L76.8914 57.4222C84.0916 54.6773 92.0705 53.1437 100.489 53.1437V41.1437ZM128.238 46.1626C119.704 42.9264 110.319 41.1437 100.489 41.1437V53.1437C108.867 53.1437 116.809 54.6627 123.983 57.3829L128.238 46.1626ZM146.042 36.4651L123.697 46.2792L128.523 57.2662L150.867 47.452L146.042 36.4651ZM150.254 34.9927L146.5 36.2857L150.409 47.6314L154.162 46.3383L150.254 34.9927ZM152.731 34.3887L150.863 34.8182L153.553 46.5128L155.42 46.0833L152.731 34.3887ZM155.536 34.0367L153.413 34.2727L154.738 46.1993L156.862 45.9633L155.536 34.0367ZM161.7 36.2577L159.215 34.8129L153.183 45.1871L155.668 46.6318L161.7 36.2577ZM164.933 39.908L163.598 38.0027L153.769 44.8868L155.104 46.7921L164.933 39.908ZM166.24 43.2543L165.779 41.6723L154.258 45.0278L154.718 46.6098L166.24 43.2543ZM166.362 47.7916L166.474 45.188L154.485 44.6761L154.373 47.2797L166.362 47.7916ZM166.177 52.131L166.362 47.7916L154.373 47.2797L154.188 51.6191L166.177 52.131ZM166.01 56.0364L166.177 52.131L154.188 51.6191L154.021 55.5246L166.01 56.0364ZM165.825 60.3758L166.01 56.0365L154.021 55.5245L153.836 59.8639L165.825 60.3758ZM163.152 77.654L165.758 61.0503L153.903 59.1895L151.297 75.7932L163.152 77.654ZM170.978 103.572C170.978 92.6698 167.822 82.4388 162.325 73.5643L152.124 79.883C156.517 86.9763 158.978 95.0358 158.978 103.572H170.978ZM100.489 166C138.641 166 170.978 138.777 170.978 103.572H158.978C158.978 130.695 133.569 154 100.489 154V166ZM30 103.572C30 138.777 62.3365 166 100.489 166V154C67.4087 154 42 130.695 42 103.572H30ZM38.4653 73.8683C33.0839 82.6726 30 92.7947 30 103.572H42C42 95.1327 44.4049 87.1603 48.7041 80.1266L38.4653 73.8683ZM35.008 61.0503L37.6573 77.9279L49.5121 76.0671L46.8629 59.1895L35.008 61.0503ZM34.7556 56.0364L34.9409 60.3758L46.93 59.8639L46.7447 55.5246L34.7556 56.0364ZM34.5889 52.131L34.7556 56.0365L46.7447 55.5246L46.578 51.6191L34.5889 52.131ZM34.4036 47.7916L34.5889 52.131L46.578 51.6191L46.3927 47.2797L34.4036 47.7916ZM34.2924 45.188L34.4036 47.7916L46.3927 47.2797L46.2815 44.6761L34.2924 45.188ZM34.9871 41.6722L34.5263 43.2543L46.0476 46.6098L46.5084 45.0278L34.9871 41.6722Z" fill="white" mask="url(#path-6-inside-3_1710_3261)"/>
<path d="M106.392 122.749C106.433 121.262 105.211 120.268 104.012 120.236C102.812 120.203 101.489 121.175 101.449 122.663C101.444 122.855 101.485 123.096 101.477 123.384C101.473 123.528 101.469 123.672 101.466 123.816C101.406 126.023 100.717 130.182 94.8628 130.023C90.8323 129.914 88.3829 126.39 88.4779 122.887C88.569 119.529 89.5223 118.018 91.98 115.924C92.6194 115.365 92.9255 114.701 92.9424 114.077C92.9814 112.638 91.6743 111.258 90.1869 111.217C88.0757 111.16 83.5961 115.216 83.3983 122.51C83.2018 129.755 87.8595 135.067 94.6251 135.251C101.151 135.428 103.688 130.406 104.043 129.696C105.274 132.13 107.775 133.734 111.038 133.823C117.371 133.995 120.383 129.179 120.52 124.14C120.675 118.431 117.28 114.353 115.313 114.3C113.921 114.262 112.686 115.525 112.65 116.868C112.634 117.444 112.811 118.025 113.325 118.519C114.354 119.556 115.75 121.178 115.68 123.769C115.595 126.888 113.335 128.795 111.272 128.739C111.224 128.738 111.176 128.737 111.128 128.736C108.249 128.657 106.37 127.118 106.353 124.188L106.392 122.749Z" fill="white"/>
<rect x="84" y="51" width="7.23423" height="20.5758" rx="3.61711" fill="white"/>
<rect x="98" y="51" width="7" height="21" rx="3.5" fill="white"/>
<rect x="112.117" y="51" width="7.23423" height="20.5758" rx="3.61711" fill="white"/>
<path d="M52.0853 56.8079C51.8803 55.2367 53.4966 54.0624 54.9275 54.7429L66.4296 60.2133C67.7999 60.865 67.9738 62.7455 66.7461 63.6375L56.8923 70.7967C55.6647 71.6886 53.93 70.9421 53.7336 69.4375L52.0853 56.8079Z" fill="#D9D9D9"/>
<path d="M149.971 56.0608C150.176 54.4897 148.559 53.3153 147.128 53.9959L135.626 59.4662C134.256 60.1179 134.082 61.9985 135.31 62.8904L145.164 70.0496C146.391 70.9415 148.126 70.195 148.322 68.6904L149.971 56.0608Z" fill="#D9D9D9"/>
</svg>
