<svg width="212" height="115" viewBox="0 0 212 115" fill="none" xmlns="http://www.w3.org/2000/svg">
<rect x="32" y="97" width="5" height="14" rx="2.5" fill="#616153"/>
<rect x="197" y="93" width="3" height="15" rx="1.5" fill="#616153"/>
<rect x="24" y="97" width="5" height="14" rx="2.5" fill="#616153"/>
<rect x="188" y="93" width="4" height="15" rx="2" fill="#616153"/>
<rect x="15" y="97" width="4" height="14" rx="2" fill="#616153"/>
<rect x="179" y="93" width="2" height="15" rx="1" fill="#616153"/>
<path d="M46 105.459C46 108.134 45.395 109.672 44.5902 110.619C43.7802 111.571 42.5179 112.22 40.5879 112.597C38.6406 112.976 36.2384 113.036 33.3787 112.983C32.3623 112.965 31.2757 112.931 30.1432 112.896C28.1905 112.836 26.1013 112.772 24 112.772C21.8987 112.772 19.8095 112.836 17.8568 112.896C16.7243 112.931 15.6377 112.965 14.6213 112.983C11.7616 113.036 9.35944 112.976 7.41212 112.597C5.48211 112.22 4.21978 111.571 3.40983 110.619C2.60504 109.672 2 108.134 2 105.459C2 94.9167 11.6334 86 24 86C36.3666 86 46 94.9167 46 105.459Z" stroke="#616153" stroke-width="4"/>
<path d="M210 101.767C210 104.341 209.411 105.809 208.637 106.709C207.854 107.619 206.628 108.246 204.739 108.61C202.834 108.977 200.484 109.035 197.684 108.984C196.689 108.966 195.625 108.933 194.516 108.9C192.604 108.841 190.558 108.779 188.5 108.779C186.442 108.779 184.396 108.841 182.484 108.9C181.375 108.933 180.311 108.966 179.316 108.984C176.516 109.035 174.166 108.977 172.261 108.61C170.372 108.246 169.146 107.619 168.363 106.709C167.589 105.809 167 104.341 167 101.767C167 91.6274 176.386 83 188.5 83C200.614 83 210 91.6274 210 101.767Z" stroke="#616153" stroke-width="4"/>
<mask id="path-9-inside-1_1226_3237" fill="white">
<path fill-rule="evenodd" clip-rule="evenodd" d="M159.188 1.60608L160.522 3.72409L160.983 5.48276L160.872 8.37707L160.687 13.201L160.52 17.5425L160.335 22.3664L157.768 40.5469C164.651 52.6771 168.682 66.3475 168.682 79.1754C168.682 113.82 139.287 114.749 103.67 114.749C68.0543 114.749 42.6816 113.82 42.6816 79.1754C42.6816 67.2142 45.7062 54.5205 51.1326 43.0259L49.3041 44.6138L46.6336 25.7014L46.4483 20.8775L46.2816 16.536L46.0963 11.712L45.9851 8.81774L46.4459 7.05907L47.7803 4.94105L50.2653 3.33498L52.3887 3.5973L54.2562 4.0748L58.0096 5.51222L74.6107 13.6179C83.084 7.4656 92.9097 3.74226 103.67 3.74226C113.056 3.74226 122.01 6.57495 130.108 11.3814L148.959 2.17725L152.712 0.739825L154.58 0.262328L156.703 0L159.188 1.60608Z"/>
</mask>
<path d="M160.522 3.72409L166.326 2.20345L166.092 1.3085L165.599 0.525751L160.522 3.72409ZM159.188 1.60608L164.264 -1.59226L163.558 -2.71364L162.445 -3.43306L159.188 1.60608ZM160.983 5.48276L166.979 5.71305L167.013 4.82338L166.787 3.96213L160.983 5.48276ZM160.872 8.37707L154.876 8.14679V8.14679L160.872 8.37707ZM160.687 13.201L154.691 12.9707V12.9707L160.687 13.201ZM160.52 17.5425L166.516 17.7728V17.7728L160.52 17.5425ZM160.335 22.3664L166.276 23.2053L166.318 22.9024L166.33 22.5967L160.335 22.3664ZM157.768 40.5469L151.826 39.708L151.541 41.7312L152.549 43.5083L157.768 40.5469ZM51.1326 43.0259L56.5584 45.5873L47.1985 38.4957L51.1326 43.0259ZM49.3041 44.6138L43.363 45.4527L44.906 56.3799L53.2382 49.144L49.3041 44.6138ZM46.6336 25.7014L40.638 25.9317L40.6498 26.2374L40.6925 26.5403L46.6336 25.7014ZM46.4483 20.8775L40.4528 21.1078L46.4483 20.8775ZM46.2816 16.536L52.2772 16.3057L46.2816 16.536ZM46.0963 11.712L40.1007 11.9423V11.9423L46.0963 11.712ZM45.9851 8.81774L40.181 7.29709L39.9554 8.15835L39.9896 9.04802L45.9851 8.81774ZM46.4459 7.05907L41.3694 3.86073L40.8763 4.64348L40.6418 5.53842L46.4459 7.05907ZM47.7803 4.94105L44.5235 -0.0980886L43.4103 0.62134L42.7038 1.74272L47.7803 4.94105ZM50.2653 3.33498L51.001 -2.61975L48.8385 -2.88692L47.0085 -1.70417L50.2653 3.33498ZM52.3887 3.5973L53.875 -2.21568L53.5042 -2.3105L53.1244 -2.35743L52.3887 3.5973ZM54.2562 4.0748L56.4019 -1.52838L56.0783 -1.65233L55.7425 -1.73819L54.2562 4.0748ZM58.0096 5.51222L60.6422 0.120584L60.4035 0.00403792L60.1554 -0.0909588L58.0096 5.51222ZM74.6107 13.6179L71.9781 19.0095L75.2182 20.5915L78.1359 18.4731L74.6107 13.6179ZM130.108 11.3814L127.045 16.541L129.83 18.1939L132.74 16.773L130.108 11.3814ZM148.959 2.17725L146.813 -3.42593L146.565 -3.33094L146.326 -3.21439L148.959 2.17725ZM152.712 0.739825L151.226 -5.07316L150.89 -4.98731L150.566 -4.86335L152.712 0.739825ZM154.58 0.262328L153.844 -5.6924L153.464 -5.64547L153.093 -5.55066L154.58 0.262328ZM156.703 0L159.96 -5.03914L158.13 -6.22189L155.967 -5.95473L156.703 0ZM165.599 0.525751L164.264 -1.59226L154.111 4.80442L155.446 6.92243L165.599 0.525751ZM166.787 3.96213L166.326 2.20345L154.718 5.24473L155.179 7.0034L166.787 3.96213ZM166.868 8.60736L166.979 5.71305L154.988 5.25248L154.876 8.14679L166.868 8.60736ZM166.682 13.4313L166.868 8.60736L154.876 8.14679L154.691 12.9707L166.682 13.4313ZM166.516 17.7728L166.682 13.4313L154.691 12.9707L154.524 17.3123L166.516 17.7728ZM166.33 22.5967L166.516 17.7728L154.524 17.3122L154.339 22.1362L166.33 22.5967ZM163.709 41.3858L166.276 23.2053L154.394 21.5275L151.826 39.708L163.709 41.3858ZM174.682 79.1754C174.682 65.1484 170.296 50.4674 162.986 37.5855L152.549 43.5083C159.007 54.8869 162.682 67.5467 162.682 79.1754H174.682ZM103.67 120.749C121.142 120.749 138.638 120.599 151.696 115.55C158.45 112.938 164.364 108.906 168.522 102.682C172.661 96.4842 174.682 88.6782 174.682 79.1754H162.682C162.682 86.9948 161.028 92.2964 158.543 96.0166C156.075 99.7106 152.415 102.406 147.368 104.357C136.825 108.434 121.815 108.749 103.67 108.749V120.749ZM36.6816 79.1754C36.6816 88.5311 38.3905 96.2408 42.0393 102.405C45.7413 108.66 51.126 112.793 57.4841 115.48C63.7214 118.116 70.9493 119.389 78.6068 120.04C86.284 120.694 94.7915 120.749 103.67 120.749V108.749C94.7412 108.749 86.7211 108.687 79.6239 108.084C72.507 107.478 66.7137 106.353 62.1559 104.427C57.7188 102.552 54.5343 99.9564 52.3659 96.2931C50.1444 92.5398 48.6816 87.1419 48.6816 79.1754H36.6816ZM45.7068 40.4644C39.9389 52.6825 36.6816 66.2466 36.6816 79.1754H48.6816C48.6816 68.1819 51.4735 56.3585 56.5584 45.5873L45.7068 40.4644ZM53.2382 49.144L55.0667 47.5561L47.1985 38.4957L45.37 40.0836L53.2382 49.144ZM40.6925 26.5403L43.363 45.4527L55.2451 43.7749L52.5747 24.8625L40.6925 26.5403ZM40.4528 21.1078L40.638 25.9317L52.6292 25.4711L52.4439 20.6472L40.4528 21.1078ZM40.286 16.7662L40.4528 21.1078L52.4439 20.6472L52.2772 16.3057L40.286 16.7662ZM40.1007 11.9423L40.286 16.7662L52.2772 16.3057L52.0919 11.4818L40.1007 11.9423ZM39.9896 9.04802L40.1007 11.9423L52.0919 11.4818L51.9807 8.58746L39.9896 9.04802ZM40.6418 5.53842L40.181 7.29709L51.7892 10.3384L52.25 8.57971L40.6418 5.53842ZM42.7038 1.74272L41.3694 3.86073L51.5224 10.2574L52.8568 8.13939L42.7038 1.74272ZM47.0085 -1.70417L44.5235 -0.0980886L51.0372 9.9802L53.5222 8.37412L47.0085 -1.70417ZM53.1244 -2.35743L51.001 -2.61975L49.5296 9.2897L51.653 9.55203L53.1244 -2.35743ZM55.7425 -1.73819L53.875 -2.21568L50.9024 9.41029L52.7698 9.88779L55.7425 -1.73819ZM60.1554 -0.0909588L56.4019 -1.52838L52.1104 9.67798L55.8639 11.1154L60.1554 -0.0909588ZM77.2432 8.22624L60.6422 0.120584L55.3771 10.9039L71.9781 19.0095L77.2432 8.22624ZM103.67 -2.25774C91.4612 -2.25774 80.4258 1.98094 71.0854 8.76269L78.1359 18.4731C85.7423 12.9503 94.3582 9.74226 103.67 9.74226V-2.25774ZM133.17 6.22181C124.293 0.95233 114.293 -2.25774 103.67 -2.25774V9.74226C111.82 9.74226 119.728 12.1976 127.045 16.541L133.17 6.22181ZM146.326 -3.21439L127.475 5.98974L132.74 16.773L151.591 7.56888L146.326 -3.21439ZM150.566 -4.86335L146.813 -3.42593L151.104 7.78043L154.858 6.343L150.566 -4.86335ZM153.093 -5.55066L151.226 -5.07316L154.198 6.55281L156.066 6.07532L153.093 -5.55066ZM155.967 -5.95473L153.844 -5.6924L155.315 6.21706L157.439 5.95473L155.967 -5.95473ZM162.445 -3.43306L159.96 -5.03914L153.446 5.03914L155.931 6.64522L162.445 -3.43306Z" fill="#616153" mask="url(#path-9-inside-1_1226_3237)"/>
<path d="M109.573 84.6031C109.609 83.1156 108.385 82.1183 107.186 82.0821C105.986 82.0459 104.666 83.0146 104.63 84.5021C104.625 84.6941 104.667 84.9355 104.66 85.2234C104.657 85.3673 104.653 85.5113 104.65 85.6553C104.596 87.8626 103.919 92.02 98.0652 91.8435C94.035 91.7221 91.5764 88.1904 91.6619 84.6875C91.7438 81.3285 92.6929 79.8204 95.1444 77.7334C95.7822 77.1763 96.0865 76.5132 96.1017 75.8894C96.1368 74.4498 94.8262 73.0657 93.3389 73.0209C91.2278 72.9573 86.76 77.0004 86.582 84.2942C86.4053 91.5401 91.0767 96.8672 97.8416 97.0711C104.367 97.2678 106.89 92.2536 107.243 91.544C108.48 93.9823 110.985 95.5945 114.248 95.6928C120.581 95.8838 123.579 91.076 123.702 86.0375C123.841 80.3272 120.436 76.2388 118.469 76.1795C117.078 76.1376 115.846 77.397 115.814 78.7406C115.8 79.3164 115.978 79.8981 116.494 80.3938C117.525 81.4333 118.925 83.0603 118.862 85.6515C118.786 88.7706 116.531 90.6714 114.468 90.6093C114.42 90.6078 114.372 90.6064 114.324 90.6049C111.445 90.5181 109.562 88.9727 109.538 86.0427L109.573 84.6031Z" fill="#616153"/>
<rect x="88" y="8" width="6" height="23" rx="3" fill="#616153"/>
<rect x="102" y="8" width="6" height="23" rx="3" fill="#616153"/>
<rect x="115" y="8" width="7" height="23" rx="3.5" fill="#616153"/>
<path d="M56.4766 19.0862C56.2814 17.4233 57.8673 16.1425 59.2296 16.8628L71.0692 23.1224C72.3438 23.7963 72.4681 25.7428 71.297 26.6887L61.154 34.8809C59.9829 35.8268 58.3559 35.0938 58.1733 33.538L56.4766 19.0862Z" fill="#D9D9D9"/>
<path d="M151.168 16.8631C151.363 15.2002 149.777 13.9194 148.415 14.6396L136.575 20.8992C135.301 21.5731 135.176 23.5197 136.348 24.4656L146.491 32.6577C147.662 33.6036 149.289 32.8707 149.471 31.3148L151.168 16.8631Z" fill="#D9D9D9"/>
<rect width="7.00025" height="20.0093" rx="3.50013" transform="matrix(0.999812 0.0194004 -0.0156999 0.999877 75.3389 44.6489)" fill="#616153"/>
<rect width="7.00025" height="20.0093" rx="3.50013" transform="matrix(0.999812 0.0194004 -0.0156999 0.999877 129.34 44.6489)" fill="#616153"/>
</svg>
